<?xml version="1.0" encoding="UTF-8" standalone="no"?>
<svg
   xmlns:dc="http://purl.org/dc/elements/1.1/"
   xmlns:cc="http://creativecommons.org/ns#"
   xmlns:rdf="http://www.w3.org/1999/02/22-rdf-syntax-ns#"
   xmlns:svg="http://www.w3.org/2000/svg"
   xmlns="http://www.w3.org/2000/svg"
   xmlns:sodipodi="http://sodipodi.sourceforge.net/DTD/sodipodi-0.dtd"
   xmlns:inkscape="http://www.inkscape.org/namespaces/inkscape"
   enable-background="new 0 0 24 24"
   height="20"
   viewBox="0 0 20 20"
   width="20"
   version="1.1"
   id="svg8"
   sodipodi:docname="icon.svg"
   inkscape:version="0.92.4 (5da689c313, 2019-01-14)"
   inkscape:export-filename="icon.svg.png"
   inkscape:export-xdpi="940.79999"
   inkscape:export-ydpi="940.79999">
  <metadata
     id="metadata14">
    <rdf:RDF>
      <cc:Work
         rdf:about="">
        <dc:format>image/svg+xml</dc:format>
        <dc:type
           rdf:resource="http://purl.org/dc/dcmitype/StillImage" />
        <dc:title></dc:title>
      </cc:Work>
    </rdf:RDF>
  </metadata>
  <defs
     id="defs12" />
  <sodipodi:namedview
     pagecolor="#ffffff"
     bordercolor="#666666"
     borderopacity="1"
     objecttolerance="10"
     gridtolerance="10"
     guidetolerance="10"
     inkscape:pageopacity="0"
     inkscape:pageshadow="2"
     inkscape:window-width="1536"
     inkscape:window-height="1347"
     id="namedview10"
     showgrid="false"
     showborder="true"
     inkscape:zoom="11.313708"
     inkscape:cx="21.702919"
     inkscape:cy="1.3141159"
     inkscape:window-x="1024"
     inkscape:window-y="0"
     inkscape:window-maximized="0"
     inkscape:current-layer="svg8" />
  <g
     id="g818"
     transform="translate(-2,2)">
    <path
       style="fill:#00e676;fill-opacity:1"
       sodipodi:nodetypes="sssscsscsssccccccc"
       inkscape:connector-curvature="0"
       id="path4"
       d="M 4,0 C 2.9,0 2,0.9 2,2 v 12 c 0,1.1 0.9,2 2,2 h 8.79917 c -0.05,-0.33 -0.08008,-0.66 -0.08008,-1 0,-3.87 2.410908,-7 6.280908,-7 1.08,0 2.09,0.249688 3,0.679688 V 2 C 22,0.9 21.1,0 20,0 Z m 0,2 8,5 8,-5 V 4 L 12,9 4,4 Z" />
    <path
       style="fill:#d4aa00;fill-opacity:1"
       sodipodi:nodetypes="sscsssssscssssccss"
       inkscape:connector-curvature="0"
       id="path823"
       d="m 18.5,10.016466 c -1.38,0 -2.5,1.12 -2.5,2.5 v 0.5 c -0.55,0 -1,0.45 -1,1 V 17 c 0,0.55 0.45,1 1,1 h 5 c 0.55,0 1,-0.45 1,-1 v -2.983534 c 0,-0.55 -0.45,-1 -1,-1 v -0.5 c 0,-1.38 -1.12,-2.5 -2.5,-2.5 z m 0,0.800781 c 0.94,0 1.699219,0.759219 1.699219,1.699219 v 0.5 h -3.400391 v -0.5 c 0,-0.94 0.761172,-1.699219 1.701172,-1.699219 z" />
  </g>
</svg>
