<?xml version="1.0" encoding="UTF-8"?>
<svg width="24px" height="24px" enable-background="new 0 0 24 24" fill="#000000" version="1.1" viewBox="0 0 24 24" xmlns="http://www.w3.org/2000/svg">
 <rect width="24" height="24" fill="none"/>
 <path d="m12 5c-3.53 0-6.4397 2.61-6.9297 6h-3.0703v2h3.0703c0.49 3.39 3.3997 6 6.9297 6s6.4397-2.61 6.9297-6h3.0703v-2h-3.0703c-0.49-3.39-3.3997-6-6.9297-6zm1.2e-5 3.0199c1.4777 0 2.6387 1.1375 2.6387 2.6151 0 1.7038-1.9746 1.8781-1.9746 3.3558h-1.3282c0-2.1713 1.9835-2.0365 1.9835-3.3558 0-0.70114-0.61821-1.3193-1.3193-1.3193-0.70114 0-1.3193 0.61821-1.3193 1.3193h-1.3193c0-1.4701 1.161-2.6151 2.6387-2.6151zm-0.66409 6.6335h1.3282v1.3267h-1.3282z"/>
 <g transform="translate(-17.29 4.9736)" fill="#000">
  <path d="m0 0h24v24h-24z" fill="none"/>
 </g>
</svg>
