<?xml version="1.0" encoding="UTF-8" standalone="no"?>
<!-- Created with Inkscape (http://www.inkscape.org/) -->

<svg
   xmlns:dc="http://purl.org/dc/elements/1.1/"
   xmlns:cc="http://creativecommons.org/ns#"
   xmlns:rdf="http://www.w3.org/1999/02/22-rdf-syntax-ns#"
   xmlns:svg="http://www.w3.org/2000/svg"
   xmlns="http://www.w3.org/2000/svg"
   xmlns:sodipodi="http://sodipodi.sourceforge.net/DTD/sodipodi-0.dtd"
   xmlns:inkscape="http://www.inkscape.org/namespaces/inkscape"
   width="208"
   height="48"
   viewBox="0 0 55.033331 12.7"
   version="1.1"
   id="svg8"
   sodipodi:docname="logo.svg"
   inkscape:version="0.92.4 (5da689c313, 2019-01-14)">
  <defs
     id="defs2" />
  <sodipodi:namedview
     id="base"
     pagecolor="#455a64"
     bordercolor="#666666"
     borderopacity="1.0"
     inkscape:pageopacity="0"
     inkscape:pageshadow="2"
     inkscape:zoom="3.8416"
     inkscape:cx="19.489615"
     inkscape:cy="-38.695483"
     inkscape:document-units="mm"
     inkscape:current-layer="greek"
     showgrid="false"
     units="px"
     inkscape:window-width="2560"
     inkscape:window-height="1384"
     inkscape:window-x="0"
     inkscape:window-y="0"
     inkscape:window-maximized="1"
     showguides="false"
     inkscape:snap-bbox="true"
     inkscape:snap-bbox-edge-midpoints="true"
     inkscape:snap-intersection-paths="true"
     inkscape:object-paths="true"
     inkscape:snap-global="false" />
  <metadata
     id="metadata5">
    <rdf:RDF>
      <cc:Work
         rdf:about="">
        <dc:format>image/svg+xml</dc:format>
        <dc:type
           rdf:resource="http://purl.org/dc/dcmitype/StillImage" />
        <dc:title></dc:title>
      </cc:Work>
    </rdf:RDF>
  </metadata>
  <g
     inkscape:label="logo"
     inkscape:groupmode="layer"
     id="layer1"
     transform="translate(0,-284.29999)"
     style="display:inline">
    <g
       id="english"
       inkscape:label="#g931"
       transform="translate(1.6819321e-6,-3.225365)">
      <path
         d="m 9.0435862,292.09029 h 1.8941448 v 2.74824 c 0,1.44675 0.790195,2.15561 2.114935,2.15561 0.424148,0 0.703042,-0.0289 1.080709,-0.13942 l -0.133637,-1.45254 c -0.220791,0.0466 -0.30213,0.0755 -0.586836,0.0755 -0.360236,0 -0.511301,-0.16834 -0.511301,-0.63915 v -2.74824 h 2.045209 v -1.49906 H 9.0435862 Z"
         style="fill:#ffffff"
         id="path839"
         inkscape:connector-curvature="0" />
      <path
         d="m 20.794787,293.0606 c -0.563594,0 -0.918019,-0.21491 -0.918019,-0.5694 0,-0.29619 0.238234,-0.61589 0.865727,-0.61589 0.522924,0 0.89478,0.16833 0.89478,0.54037 h 1.963867 c 0,-1.22015 -1.237583,-1.93482 -2.72501,-1.93482 -1.725649,0 -2.957423,0.63911 -2.957423,1.83022 0,0.55777 0.41834,1.05165 1.092329,1.33056 -0.766954,0.24414 -1.202725,0.74371 -1.202725,1.45835 0,1.19111 1.34217,1.89415 3.067819,1.89415 1.38284,0 2.817975,-0.60426 2.817975,-1.97549 h -1.958056 c 0,0.31964 -0.307945,0.58103 -0.999365,0.58103 -0.668181,0 -0.976125,-0.34279 -0.976125,-0.674 0,-0.49385 0.435771,-0.66234 1.034226,-0.66234 h 1.016795 v -1.20274 z"
         style="fill:#ffffff"
         id="path841"
         inkscape:connector-curvature="0"
         sodipodi:nodetypes="sssccsscssccsssccs" />
      <path
         d="m 32.76097,296.95929 v -1.4758 h -0.185936 c -0.342803,0 -0.517113,-0.37187 -0.644939,-0.68563 l -2.382204,-5.9497 c -0.255646,-0.63333 -0.784385,-1.0168 -1.632684,-1.0168 -0.336994,0 -0.819246,0.0524 -1.133002,0.14521 l 0.0523,1.39445 c 0.168492,-0.0161 0.255646,-0.0161 0.377667,-0.0161 0.389287,0 0.644939,0.1452 0.801815,0.51714 l 0.331187,0.76112 0.987745,2.66694 0.807626,2.34151 c 0.249832,0.76116 0.796004,1.34797 1.894145,1.34797 0.30213,0 0.517113,0 0.726281,-0.0289 z"
         style="fill:#66ffa6"
         id="path843"
         inkscape:connector-curvature="0"
         sodipodi:nodetypes="ccsccsccsccccscc" />
      <path
         d="m 41.42111,296.95929 v -1.4758 h -0.185936 c -0.342806,0 -0.517116,-0.37187 -0.644939,-0.68563 l -2.382208,-5.9497 c -0.255645,-0.63333 -0.784384,-1.0168 -1.632683,-1.0168 -0.336995,0 -0.819246,0.0524 -1.133002,0.14521 l 0.0523,1.39445 c 0.168493,-0.0161 0.255646,-0.0161 0.377664,-0.0161 0.38929,0 0.644939,0.1452 0.801819,0.51714 l 0.331183,0.76112 0.987745,2.66694 0.807627,2.34151 c 0.249831,0.76116 0.796004,1.34797 1.894144,1.34797 0.30213,0 0.517113,0 0.726281,-0.0289 z"
         style="fill:#66ffa6"
         id="path845"
         inkscape:connector-curvature="0"
         sodipodi:nodetypes="ccsccsccsccccscc" />
      <path
         id="path837-2-3"
         d="m 3.0331631,290.59197 c -0.072087,0 -0.1346012,0.0129 -0.2041827,0.0161 -0.3513316,0.0713 -0.6040061,0.38019 -0.6043691,0.73873 5.269e-4,0.41601 0.3377527,0.75312 0.7537733,0.75367 l 0.059848,0.002 c 0.7437119,0 0.9528803,0.71962 0.9528803,1.57374 v 0.12272 c 0,0.94709 -0.2199558,1.6901 -0.9462434,1.6901 -0.022808,0 -0.2323236,-0.003 -0.4464199,-0.0257 l -0.00353,1.51036 c 0.1509846,0.0161 0.3009092,0.0225 0.449825,0.0257 1.8825218,0 2.9051312,-1.26085 2.9051312,-2.96326 v -0.1211 c 0,-0.70883 -0.4415787,-1.36542 -0.9877448,-1.81282 h 1.4293236 v -1.51065 c -0.9359636,0.006 -2.9653998,-9e-5 -3.3585671,-1.9e-4 z"
         style="fill:#ffffff"
         inkscape:connector-curvature="0"
         sodipodi:nodetypes="cccccssscccssccccc" />
      <path
         inkscape:connector-curvature="0"
         id="path847-6-5"
         d="m 44.782278,290.59107 c -0.482256,0.71467 -0.906405,1.72 -0.906405,2.99827 0,1.94645 0.639099,3.40496 2.649451,3.40496 0.015,0 0.02903,-0.002 0.04393,-0.003 v -1.50998 c -0.574601,-0.0163 -0.735357,-0.96496 -0.735357,-1.89239 0.02891,-1.02843 0.313682,-2.03958 0.766879,-2.99827 z m 5.415174,0 c 0.453197,0.95869 0.737825,1.96984 0.766876,2.99827 0,0.93051 -0.166904,1.88284 -0.740521,1.8929 v 1.50896 c 0.01664,3.4e-4 0.03232,0.003 0.04909,0.003 2.016159,0 2.643767,-1.45851 2.643767,-3.40496 0,-1.27827 -0.412531,-2.2836 -0.906404,-2.99827 z"
         style="display:inline;fill:#ffffff" />
    </g>
  </g>
</svg>
