<?xml version="1.0" encoding="UTF-8" standalone="no"?>
<!-- Created with Inkscape (http://www.inkscape.org/) -->

<svg
   xmlns:dc="http://purl.org/dc/elements/1.1/"
   xmlns:cc="http://creativecommons.org/ns#"
   xmlns:rdf="http://www.w3.org/1999/02/22-rdf-syntax-ns#"
   xmlns:svg="http://www.w3.org/2000/svg"
   xmlns="http://www.w3.org/2000/svg"
   xmlns:sodipodi="http://sodipodi.sourceforge.net/DTD/sodipodi-0.dtd"
   xmlns:inkscape="http://www.inkscape.org/namespaces/inkscape"
   width="208"
   height="48"
   viewBox="0 0 55.033331 12.7"
   version="1.1"
   id="svg8"
   sodipodi:docname="logo.svg"
   inkscape:version="0.92.4 (5da689c313, 2019-01-14)">
  <defs
     id="defs2" />
  <sodipodi:namedview
     id="base"
     pagecolor="#455a64"
     bordercolor="#666666"
     borderopacity="1.0"
     inkscape:pageopacity="0"
     inkscape:pageshadow="2"
     inkscape:zoom="3.8416"
     inkscape:cx="19.489615"
     inkscape:cy="-38.695483"
     inkscape:document-units="mm"
     inkscape:current-layer="greek"
     showgrid="false"
     units="px"
     inkscape:window-width="2560"
     inkscape:window-height="1384"
     inkscape:window-x="0"
     inkscape:window-y="0"
     inkscape:window-maximized="1"
     showguides="false"
     inkscape:snap-bbox="true"
     inkscape:snap-bbox-edge-midpoints="true"
     inkscape:snap-intersection-paths="true"
     inkscape:object-paths="true"
     inkscape:snap-global="false" />
  <metadata
     id="metadata5">
    <rdf:RDF>
      <cc:Work
         rdf:about="">
        <dc:format>image/svg+xml</dc:format>
        <dc:type
           rdf:resource="http://purl.org/dc/dcmitype/StillImage" />
        <dc:title></dc:title>
      </cc:Work>
    </rdf:RDF>
  </metadata>
  <g
     inkscape:label="logo"
     inkscape:groupmode="layer"
     id="layer1"
     transform="translate(0,-284.29999)"
     style="display:inline">
    <g
       id="greek"
       inkscape:label="#g939"
       transform="translate(3.1750017,-3.225365)">
      <path
         d="m 2.7746728,294.03674 v -0.12208 c 0,-0.70882 -0.4415788,-1.36538 -0.9877449,-1.81278 h 1.4293236 v -1.51068 h -3.35251802 v 0.006 l -0.00578,-0.006 c -1.96386708,0 -3.03295418,1.31312 -3.03295418,3.08526 v 0.12207 c 0,1.83604 1.0690871,3.20146 3.04457358,3.20146 1.88252492,0 2.90513122,-1.26082 2.90513122,-2.96322 z m -3.991649,-0.36025 c 0,-0.85412 0.25564598,-1.57457 1.08070968,-1.57457 0.7437119,0 0.9528802,0.72045 0.9528802,1.57457 v 0.12208 c 0,0.94709 -0.2207909,1.6908 -0.9470721,1.6908 -0.8424848,0 -1.08651778,-0.74371 -1.08651778,-1.6908 z"
         style="fill:#ffffff"
         id="path837-2"
         inkscape:connector-curvature="0" />
      <path
         d="M 5.8685862,292.09029 H 7.762731 v 2.74824 c 0,1.44675 0.790195,2.15561 2.114935,2.15561 0.424148,0 0.703042,-0.0289 1.080709,-0.13942 l -0.133637,-1.45254 c -0.220791,0.0466 -0.30213,0.0755 -0.586836,0.0755 -0.360236,0 -0.511301,-0.16834 -0.511301,-0.63915 v -2.74824 h 2.045209 v -1.49906 H 5.8685862 Z"
         style="fill:#ffffff"
         id="path839-7"
         inkscape:connector-curvature="0" />
      <path
         d="m 17.619787,293.0606 c -0.563594,0 -0.918019,-0.21491 -0.918019,-0.5694 0,-0.29619 0.238234,-0.61589 0.865727,-0.61589 0.522924,0 0.89478,0.16833 0.89478,0.54037 h 1.963867 c 0,-1.22015 -1.237583,-1.93482 -2.72501,-1.93482 -1.725649,0 -2.957423,0.63911 -2.957423,1.83022 0,0.55777 0.41834,1.05165 1.092329,1.33056 -0.766954,0.24414 -1.202725,0.74371 -1.202725,1.45835 0,1.19111 1.34217,1.89415 3.067819,1.89415 1.38284,0 2.817975,-0.60426 2.817975,-1.97549 h -1.958056 c 0,0.31964 -0.307945,0.58103 -0.999365,0.58103 -0.668181,0 -0.976125,-0.34279 -0.976125,-0.674 0,-0.49385 0.435771,-0.66234 1.034226,-0.66234 h 1.016795 v -1.20274 z m -0.743712,-3.47454 h 1.162052 l 1.098137,-2.01034 h -1.766318 z"
         style="fill:#ffffff"
         id="path841-0"
         inkscape:connector-curvature="0" />
      <path
         d="m 29.58597,296.95929 v -1.4758 h -0.185936 c -0.342803,0 -0.517113,-0.37187 -0.644939,-0.68563 l -2.382204,-5.9497 c -0.255646,-0.63333 -0.784385,-1.0168 -1.632684,-1.0168 -0.336994,0 -0.819246,0.0524 -1.133002,0.14521 l 0.0523,1.39445 c 0.168492,-0.0161 0.255646,-0.0161 0.377667,-0.0161 0.389287,0 0.644939,0.1452 0.801815,0.51714 l 0.331187,0.76112 -2.2079,6.24604 h 2.097504 l 1.098141,-3.5791 0.807626,2.34151 c 0.249832,0.76116 0.796004,1.34797 1.894145,1.34797 0.30213,0 0.517113,0 0.726281,-0.0289 z"
         style="fill:#ffffff"
         id="path843-9"
         inkscape:connector-curvature="0" />
      <path
         d="m 38.24611,296.95929 v -1.4758 h -0.185936 c -0.342806,0 -0.517116,-0.37187 -0.644939,-0.68563 l -2.382208,-5.9497 c -0.255645,-0.63333 -0.784384,-1.0168 -1.632683,-1.0168 -0.336995,0 -0.819246,0.0524 -1.133002,0.14521 l 0.0523,1.39445 c 0.168493,-0.0161 0.255646,-0.0161 0.377664,-0.0161 0.38929,0 0.644939,0.1452 0.801819,0.51714 l 0.331183,0.76112 -2.2079,6.24604 h 2.097505 l 1.09814,-3.5791 0.807627,2.34151 c 0.249831,0.76116 0.796004,1.34797 1.894144,1.34797 0.30213,0 0.517113,0 0.726281,-0.0289 z"
         style="fill:#ffffff"
         id="path845-3"
         inkscape:connector-curvature="0" />
      <path
         d="m 44.175431,293.96699 c 0,1.12722 -0.348617,1.5165 -0.766953,1.5165 -0.586836,0 -0.749524,-0.95869 -0.749524,-1.89415 0.02891,-1.02843 0.313759,-2.03942 0.766954,-2.99811 h -1.81861 c -0.482255,0.71468 -0.906403,1.71985 -0.906403,2.99811 0,1.94645 0.639128,3.4048 2.649479,3.4048 0.813438,0 1.475808,-0.40669 1.876714,-1.16785 0.395098,0.76116 1.057467,1.16785 1.870905,1.16785 2.01616,0 2.643668,-1.45835 2.643668,-3.4048 0,-1.27826 -0.412529,-2.28343 -0.906403,-2.99811 h -1.812799 c 0.453198,0.95869 0.737901,1.96968 0.766954,2.99811 0,0.93546 -0.168492,1.89415 -0.749523,1.89415 -0.412529,0 -0.766954,-0.38928 -0.766954,-1.5165 v -2.15561 h -2.097505 z"
         style="fill:#ffffff"
         id="path847-6"
         inkscape:connector-curvature="0" />
      <g
         style="fill:#ffffff;fill-opacity:0.5"
         id="g15"
         transform="translate(-2.116665,0.264575)">
        <path
           d="m 23.195482,299.54996 q 0,-0.0323 -0.0155,-0.0568 -0.01421,-0.0245 -0.05297,-0.0452 -0.03746,-0.022 -0.100769,-0.0401 -0.0633,-0.0181 -0.160197,-0.0362 -0.122731,-0.0245 -0.224792,-0.0607 -0.100769,-0.0375 -0.173116,-0.0891 -0.07235,-0.053 -0.113688,-0.12144 -0.04005,-0.0685 -0.04005,-0.15761 0,-0.0866 0.04134,-0.16537 0.04134,-0.0788 0.118855,-0.13823 0.07751,-0.0594 0.188619,-0.0943 0.111105,-0.0349 0.250631,-0.0349 0.145986,0 0.262258,0.0349 0.116272,0.0336 0.19637,0.0943 0.08139,0.0594 0.124024,0.14211 0.04263,0.0827 0.04263,0.17958 h -0.359151 q 0,-0.0814 -0.06589,-0.13565 -0.06589,-0.0556 -0.200246,-0.0556 -0.125315,0 -0.189911,0.0452 -0.0633,0.0452 -0.0633,0.1111 0,0.031 0.01292,0.0581 0.01292,0.0258 0.04522,0.0478 0.03359,0.0207 0.09043,0.0388 0.05684,0.0168 0.144694,0.0297 0.126608,0.0207 0.235128,0.053 0.108521,0.0323 0.187327,0.084 0.07881,0.0504 0.122732,0.12403 0.04522,0.0724 0.04522,0.17311 0,0.093 -0.04522,0.17183 -0.04393,0.0775 -0.126608,0.13436 -0.08139,0.0568 -0.197662,0.0891 -0.116272,0.031 -0.259674,0.031 -0.157613,0 -0.279053,-0.0413 -0.120147,-0.0413 -0.201538,-0.10722 -0.08139,-0.0672 -0.124023,-0.15116 -0.04134,-0.0853 -0.04134,-0.17053 h 0.342356 q 0.0039,0.0568 0.03101,0.0982 0.02713,0.0401 0.06976,0.0659 0.04263,0.0245 0.09689,0.0362 0.05555,0.0116 0.113688,0.0116 0.133067,0 0.20283,-0.0426 0.06976,-0.0426 0.06976,-0.10981 z"
           id="path848"
           inkscape:connector-curvature="0" />
        <path
           d="m 25.352197,299.95949 q -0.161488,0 -0.293263,-0.053 -0.131775,-0.053 -0.226085,-0.1434 -0.09431,-0.0917 -0.145986,-0.21445 -0.05038,-0.12403 -0.05038,-0.26485 v -0.0517 q 0,-0.1602 0.05038,-0.29197 0.05039,-0.13307 0.140819,-0.22867 0.09043,-0.0956 0.214457,-0.14857 0.124023,-0.053 0.270009,-0.053 0.151154,0 0.268718,0.0504 0.118855,0.0491 0.200246,0.13953 0.08268,0.0904 0.125315,0.21833 0.04263,0.12661 0.04263,0.28035 v 0.15244 h -0.948262 q 0.01034,0.0711 0.04134,0.13049 0.0323,0.0581 0.08139,0.10077 0.04909,0.0426 0.112396,0.0659 0.0633,0.0233 0.138235,0.0233 0.05297,0 0.104645,-0.0103 0.05297,-0.0103 0.100769,-0.0297 0.0478,-0.0207 0.08914,-0.0504 0.04134,-0.0297 0.07235,-0.0698 l 0.179575,0.19379 q -0.03359,0.0478 -0.08785,0.0943 -0.05297,0.0452 -0.126607,0.0814 -0.07235,0.0349 -0.161489,0.0568 -0.08914,0.022 -0.192495,0.022 z m -0.04263,-1.15884 q -0.06072,0 -0.111104,0.022 -0.05039,0.0207 -0.08914,0.0607 -0.03746,0.0401 -0.0633,0.0956 -0.02584,0.0555 -0.03876,0.12403 h 0.589112 v -0.0284 q -0.0026,-0.0568 -0.02196,-0.10722 -0.01938,-0.0504 -0.05555,-0.0866 -0.03617,-0.0375 -0.08914,-0.0581 -0.05168,-0.022 -0.120148,-0.022 z"
           id="path850"
           inkscape:connector-curvature="0" />
        <path
           d="m 27.379722,298.53581 0.02196,0.19378 q 0.07493,-0.10464 0.182159,-0.16148 0.107229,-0.0581 0.237712,-0.0581 0.105936,0 0.193786,0.031 0.08785,0.031 0.151154,0.0995 0.0646,0.0672 0.09948,0.17441 0.03617,0.10594 0.03617,0.25838 v 0.86041 h -0.359151 v -0.85524 q 0,-0.0827 -0.01938,-0.13565 -0.01809,-0.0543 -0.05297,-0.0853 -0.03488,-0.031 -0.08397,-0.0426 -0.04909,-0.0129 -0.111104,-0.0129 -0.09173,0 -0.156322,0.0375 -0.0646,0.0362 -0.104644,0.10077 v 0.99347 h -0.360443 v -1.39784 z"
           id="path852"
           inkscape:connector-curvature="0" />
        <path
           d="m 29.396912,299.2244 q 0,-0.15891 0.03617,-0.29068 0.03747,-0.13178 0.108521,-0.22609 0.07105,-0.0943 0.171824,-0.14598 0.102061,-0.0517 0.232544,-0.0517 0.109812,0 0.192495,0.0401 0.08397,0.0388 0.148569,0.1111 v -0.71184 h 0.360443 v 1.98437 h -0.324269 l -0.01809,-0.14598 q -0.06589,0.0814 -0.155029,0.12661 -0.08914,0.0452 -0.206706,0.0452 -0.127899,0 -0.22996,-0.053 -0.100769,-0.0543 -0.171824,-0.14857 -0.06976,-0.0943 -0.107229,-0.2235 -0.03747,-0.13048 -0.03747,-0.28292 z m 0.359151,0.0271 q 0,0.0879 0.01421,0.16407 0.0155,0.0749 0.04909,0.13177 0.03359,0.0556 0.08656,0.0879 0.05297,0.0323 0.129191,0.0323 0.09302,0 0.153737,-0.0401 0.06201,-0.0401 0.09818,-0.10981 v -0.56586 q -0.03617,-0.0711 -0.09689,-0.10981 -0.06072,-0.0401 -0.152445,-0.0401 -0.07622,0 -0.130483,0.0336 -0.05297,0.0323 -0.08656,0.0904 -0.03359,0.0568 -0.04909,0.13436 -0.0155,0.0762 -0.0155,0.16408 z"
           id="path854"
           inkscape:connector-curvature="0" />
      </g>
    </g>
    <g
       id="english"
       inkscape:label="#g931"
       transform="translate(1.6819321e-6,-3.225365)">
      <path
         d="m 9.0435862,292.09029 h 1.8941448 v 2.74824 c 0,1.44675 0.790195,2.15561 2.114935,2.15561 0.424148,0 0.703042,-0.0289 1.080709,-0.13942 l -0.133637,-1.45254 c -0.220791,0.0466 -0.30213,0.0755 -0.586836,0.0755 -0.360236,0 -0.511301,-0.16834 -0.511301,-0.63915 v -2.74824 h 2.045209 v -1.49906 H 9.0435862 Z"
         style="fill:#ffffff"
         id="path839"
         inkscape:connector-curvature="0" />
      <path
         d="m 20.794787,293.0606 c -0.563594,0 -0.918019,-0.21491 -0.918019,-0.5694 0,-0.29619 0.238234,-0.61589 0.865727,-0.61589 0.522924,0 0.89478,0.16833 0.89478,0.54037 h 1.963867 c 0,-1.22015 -1.237583,-1.93482 -2.72501,-1.93482 -1.725649,0 -2.957423,0.63911 -2.957423,1.83022 0,0.55777 0.41834,1.05165 1.092329,1.33056 -0.766954,0.24414 -1.202725,0.74371 -1.202725,1.45835 0,1.19111 1.34217,1.89415 3.067819,1.89415 1.38284,0 2.817975,-0.60426 2.817975,-1.97549 h -1.958056 c 0,0.31964 -0.307945,0.58103 -0.999365,0.58103 -0.668181,0 -0.976125,-0.34279 -0.976125,-0.674 0,-0.49385 0.435771,-0.66234 1.034226,-0.66234 h 1.016795 v -1.20274 z"
         style="fill:#ffffff"
         id="path841"
         inkscape:connector-curvature="0"
         sodipodi:nodetypes="sssccsscssccsssccs" />
      <path
         d="m 32.76097,296.95929 v -1.4758 h -0.185936 c -0.342803,0 -0.517113,-0.37187 -0.644939,-0.68563 l -2.382204,-5.9497 c -0.255646,-0.63333 -0.784385,-1.0168 -1.632684,-1.0168 -0.336994,0 -0.819246,0.0524 -1.133002,0.14521 l 0.0523,1.39445 c 0.168492,-0.0161 0.255646,-0.0161 0.377667,-0.0161 0.389287,0 0.644939,0.1452 0.801815,0.51714 l 0.331187,0.76112 0.987745,2.66694 0.807626,2.34151 c 0.249832,0.76116 0.796004,1.34797 1.894145,1.34797 0.30213,0 0.517113,0 0.726281,-0.0289 z"
         style="fill:#66ffa6"
         id="path843"
         inkscape:connector-curvature="0"
         sodipodi:nodetypes="ccsccsccsccccscc" />
      <path
         d="m 41.42111,296.95929 v -1.4758 h -0.185936 c -0.342806,0 -0.517116,-0.37187 -0.644939,-0.68563 l -2.382208,-5.9497 c -0.255645,-0.63333 -0.784384,-1.0168 -1.632683,-1.0168 -0.336995,0 -0.819246,0.0524 -1.133002,0.14521 l 0.0523,1.39445 c 0.168493,-0.0161 0.255646,-0.0161 0.377664,-0.0161 0.38929,0 0.644939,0.1452 0.801819,0.51714 l 0.331183,0.76112 0.987745,2.66694 0.807627,2.34151 c 0.249831,0.76116 0.796004,1.34797 1.894144,1.34797 0.30213,0 0.517113,0 0.726281,-0.0289 z"
         style="fill:#66ffa6"
         id="path845"
         inkscape:connector-curvature="0"
         sodipodi:nodetypes="ccsccsccsccccscc" />
      <path
         id="path837-2-3"
         d="m 3.0331631,290.59197 c -0.072087,0 -0.1346012,0.0129 -0.2041827,0.0161 -0.3513316,0.0713 -0.6040061,0.38019 -0.6043691,0.73873 5.269e-4,0.41601 0.3377527,0.75312 0.7537733,0.75367 l 0.059848,0.002 c 0.7437119,0 0.9528803,0.71962 0.9528803,1.57374 v 0.12272 c 0,0.94709 -0.2199558,1.6901 -0.9462434,1.6901 -0.022808,0 -0.2323236,-0.003 -0.4464199,-0.0257 l -0.00353,1.51036 c 0.1509846,0.0161 0.3009092,0.0225 0.449825,0.0257 1.8825218,0 2.9051312,-1.26085 2.9051312,-2.96326 v -0.1211 c 0,-0.70883 -0.4415787,-1.36542 -0.9877448,-1.81282 h 1.4293236 v -1.51065 c -0.9359636,0.006 -2.9653998,-9e-5 -3.3585671,-1.9e-4 z"
         style="fill:#ffffff"
         inkscape:connector-curvature="0"
         sodipodi:nodetypes="cccccssscccssccccc" />
      <path
         inkscape:connector-curvature="0"
         id="path847-6-5"
         d="m 44.782278,290.59107 c -0.482256,0.71467 -0.906405,1.72 -0.906405,2.99827 0,1.94645 0.639099,3.40496 2.649451,3.40496 0.015,0 0.02903,-0.002 0.04393,-0.003 v -1.50998 c -0.574601,-0.0163 -0.735357,-0.96496 -0.735357,-1.89239 0.02891,-1.02843 0.313682,-2.03958 0.766879,-2.99827 z m 5.415174,0 c 0.453197,0.95869 0.737825,1.96984 0.766876,2.99827 0,0.93051 -0.166904,1.88284 -0.740521,1.8929 v 1.50896 c 0.01664,3.4e-4 0.03232,0.003 0.04909,0.003 2.016159,0 2.643767,-1.45851 2.643767,-3.40496 0,-1.27827 -0.412531,-2.2836 -0.906404,-2.99827 z"
         style="display:inline;fill:#ffffff" />
    </g>
  </g>
</svg>
