<?xml version="1.0" encoding="UTF-8"?>
<svg width="24px" height="24px" version="1.1" viewBox="0 0 24 24" xmlns="http://www.w3.org/2000/svg">
    <path d="m3 3-3 18h21l1.4141-8.4844h-1.2656v3.041h-1.4414v-7.1094h1.4414v2.877h1.4648l1.3867-8.3242h-21zm13.26 5.3457c1.6064 0 2.3096 0.82031 2.4219 2.3633h-1.3926c-0.078124-0.89355-0.35058-1.1719-0.99023-1.1719-0.75195 0-1.1191 0.50781-1.1191 1.8555v1.2148c-1e-6 1.3477 0.40039 1.8555 1.25 1.8555 0.50781 0 0.69434-0.18945 0.81641-0.25781v-1.3047h-1.0098v-1.084h2.4492v2.9355c-0.30273 0.32226-1 0.90234-2.3379 0.90234-1.582 0-2.6074-0.98144-2.6074-3.0469v-1.2051c0-2.0703 0.97168-3.0566 2.5195-3.0566zm-11.26 0.10156h1.4414v2.877h2.1133v-2.877h1.4316v7.1094h-1.4316v-3.041h-2.1133v3.041h-1.4414v-7.1094zm6.1953 0h1.4375v7.1094h-1.4375v-7.1094z"/>
    <path d="M0 0h24v24H0z" fill="none"/>
</svg>
