<svg xmlns="http://www.w3.org/2000/svg" viewBox="0 0 16 16" width="16" height="16">
<path fill="#000000" d="M14.91 10.13c.23 0 .59.26.59.9 0 .63-.26 1.35-.32 1.51-.95 2.27-3.2 3.54-5.88 3.46a6.08 6.08 0 0 1-5.56-3.56c-.56 0-1.14-.25-1.59-.65a2.36 2.36 0 0 1-.8-1.5 2.6 2.6 0 0 1 .14-1.2l-.52-.45c-2.4-2.03 5.1-10.4 7.5-8.3l.81.8.45-.19c2.1-.87 3.8-.45 3.8.94.01.73-.45 1.58-1.19 2.35.27.24.48.63.6 1.08.1.33.13.66.14.88l.03 1 .3.08c.56.16.96.37 1.15.58.2.2.3.4.33.64.04.19.03.52-.22.9 0 0 .07.14.13.34l.11.39zM9.1 11.18zm5.85.07c.06-.38-.03-.53-.14-.6-.12-.08-.27-.05-.27-.05s-.06-.45-.25-.87c-.55.44-1.26.75-1.8.9a7.3 7.3 0 0 1-2.43.27c-.52-.04-.87-.2-1 .23 1.2.44 2.47.25 2.47.25.02 0 .05.02.05.04s-.01.04-.03.05c0 0-.97.46-2.52-.03.04.37.4.53.56.6.22.08.45.12.45.12 1.92.33 3.71-.77 4.11-1.05.03-.02.05 0 .03.04a.67.67 0 0 1-.04.06c-.5.64-1.82 1.38-3.55 1.38-.75 0-1.5-.27-1.78-.68-.43-.64-.02-1.56.7-1.47l.3.04c.9.1 2.2-.03 3.26-.53.97-.45 1.34-.95 1.29-1.36a.58.58 0 0 0-.17-.33 2.1 2.1 0 0 0-.92-.44l-.38-.1c-.2-.07-.3-.13-.32-.5l-.05-1c-.02-.41-.07-.98-.42-1.22a.6.6 0 0 0-.3-.1c-.11 0-.16.02-.19.02-.2.03-.32.14-.47.27-.44.37-.81.43-1.23.4-.24 0-.5-.04-.8-.06h-.18c-.7-.04-1.44.56-1.57 1.42-.17 1.19.69 1.8.94 2.16.03.05.07.1.07.17s-.05.12-.1.17a3.06 3.06 0 0 0-.53 3.21c.62 1.47 2.57 2.16 4.46 1.53a4.66 4.66 0 0 0 1.83-1.13c.5-.53.8-1.1.92-1.81zm-3.16-3.69c-.09-.11-.16-.3-.2-.51-.09-.38-.08-.66.14-.7.22-.03.33.2.4.58.06.26.05.5 0 .63h-.34zm-1.9.3a1.29 1.29 0 0 0-.61-.13c-.35.02-.66.18-.74.17-.04 0-.06-.02-.06-.05-.02-.06.08-.17.19-.25.32-.23.74-.28 1.09-.13.17.07.33.2.4.33.04.06.05.11.03.14-.04.04-.14 0-.3-.08zm-.32.18c.29-.03.5.1.54.18.03.04.02.06.01.07-.02.03-.07.03-.17.02a1.3 1.3 0 0 0-.67.07s-.1.04-.15.04a.05.05 0 0 1-.05-.05c0-.05.04-.1.1-.16a.74.74 0 0 1 .4-.17zm1.58.68c-.14-.07-.21-.21-.16-.32.05-.1.2-.13.34-.06s.22.21.17.31c-.05.1-.2.13-.35.07zm.9-.8c.12 0 .2.14.2.3 0 .15-.1.27-.2.27-.12 0-.21-.13-.2-.28 0-.16.09-.29.2-.29zM6.13 4.5c-.02.03.01.06.04.04a6.04 6.04 0 0 1 4.77-.95c.03 0 .05-.05.02-.07a3.4 3.4 0 0 0-1.45-.38c-.02 0-.04-.02-.02-.04.07-.1.18-.2.27-.28.02-.01 0-.05-.02-.05-.62.04-1.33.34-1.74.62-.02.02-.04 0-.04-.03.03-.15.13-.35.19-.45 0-.02-.02-.05-.04-.03-.65.33-1.39.93-1.98 1.62zM3.04 7.78A10.65 10.65 0 0 1 6.4 3.05c1.12-.94 2.33-1.61 2.33-1.61S8.07.68 7.87.62C6.66.29 4.04 2.11 2.37 4.5c-.68.97-1.65 2.7-1.18 3.57.05.11.38.4.55.54.3-.42.76-.73 1.3-.83zm.9 4.05c.88-.15 1.11-1.1.97-2.05-.17-1.06-.88-1.43-1.36-1.46-.14 0-.26 0-.37.03-.86.18-1.35.91-1.25 1.87.08.87.96 1.6 1.77 1.63.08 0 .17 0 .25-.02zm.34-1.1c.04 0 .09-.01.12.02 0 .01.02.04 0 .09-.03.07-.15.17-.34.17-.18-.02-.4-.15-.42-.5-.01-.16.05-.37.09-.48a.45.45 0 0 0-.52-.6.45.45 0 0 0-.28.2 1.06 1.06 0 0 0-.12.28c-.04.1-.1.14-.15.13-.02 0-.04-.02-.06-.06-.05-.14-.01-.52.24-.8a.76.76 0 0 1 .65-.23c.26.03.47.18.6.43.17.33.01.67-.08.88l-.02.06c-.06.14-.06.25-.01.33.04.07.1.1.2.1l.1-.01z"/></svg>
