<?xml version="1.0" encoding="UTF-8" standalone="no"?>
<svg
   xmlns:dc="http://purl.org/dc/elements/1.1/"
   xmlns:cc="http://creativecommons.org/ns#"
   xmlns:rdf="http://www.w3.org/1999/02/22-rdf-syntax-ns#"
   xmlns:svg="http://www.w3.org/2000/svg"
   xmlns="http://www.w3.org/2000/svg"
   xmlns:sodipodi="http://sodipodi.sourceforge.net/DTD/sodipodi-0.dtd"
   xmlns:inkscape="http://www.inkscape.org/namespaces/inkscape"
   height="24"
   viewBox="0 0 24 24"
   width="24"
   version="1.1"
   id="svg6"
   sodipodi:docname="art_track-24px.svg"
   inkscape:version="0.92.4 (5da689c313, 2019-01-14)">
  <metadata
     id="metadata12">
    <rdf:RDF>
      <cc:Work
         rdf:about="">
        <dc:format>image/svg+xml</dc:format>
        <dc:type
           rdf:resource="http://purl.org/dc/dcmitype/StillImage" />
      </cc:Work>
    </rdf:RDF>
  </metadata>
  <defs
     id="defs10" />
  <sodipodi:namedview
     pagecolor="#ffffff"
     bordercolor="#666666"
     borderopacity="1"
     objecttolerance="10"
     gridtolerance="10"
     guidetolerance="10"
     inkscape:pageopacity="0"
     inkscape:pageshadow="2"
     inkscape:window-width="1600"
     inkscape:window-height="900"
     id="namedview8"
     showgrid="false"
     inkscape:zoom="19.666667"
     inkscape:cx="12.842819"
     inkscape:cy="9.7275148"
     inkscape:window-x="515"
     inkscape:window-y="1440"
     inkscape:window-maximized="1"
     inkscape:current-layer="svg6" />
  <path
     d="M0 0h24v24H0z"
     fill="none"
     id="path2" />
  <g
     id="g839"
     transform="translate(0,1)">
    <path
       sodipodi:nodetypes="cccccccccc"
       inkscape:connector-curvature="0"
       id="path4"
       d="M 22,20 H 2 v -2 h 20 z m 0,-6 H 2 v 2 h 20 z" />
    <path
       id="path4-3"
       d="M 22,8 H 14 V 6 h 8 z m 0,-6 h -8 v 2 h 8 z m -8,10 h 8 V 10 H 14 Z M 12,4 v 6 c 0,1.1 -0.9,2 -2,2 H 4.0000001 C 2.9000001,12 2,11.1 2,10 V 4 C 2,2.9 2.9000001,2 4.0000001,2 H 10 c 1.1,0 2,0.9 2,2 z m -1.5,6 -2.2499999,-3 -1.75,2.26 -1.25,-1.51 -1.75,2.25 z"
       inkscape:connector-curvature="0" />
  </g>
</svg>
