<?xml version="1.0" encoding="UTF-8"?>
<svg width="24px" height="24px" version="1.1" viewBox="0 0 24 24" xmlns="http://www.w3.org/2000/svg">
    <path d="m8 10v11h2v-4.5h4v4.5h2v-11h-2v4.5h-4v-4.5z"/>
    <path d="M0 0h24v24H0V0z" fill="none"/>
    <g>
        <path d="m7.6562 7.2539c0 0.30469-0.21094 0.55859-0.73047 0.55859-0.64453 0-1.0078-0.22266-1.0078-0.89062h-1.375c0 1.3477 1.2148 1.9219 2.3828 1.9219 1.2695 0 2.1016-0.57422 2.1016-1.5977 0-0.95703-0.69531-1.4961-1.9023-1.8789-0.64844-0.21094-1.043-0.41797-1.043-0.75781 0-0.3125 0.26953-0.57422 0.78906-0.57422 0.53125 0 0.79297 0.30078 0.79297 0.73047h1.3633c0-1.0742-0.87891-1.7656-2.125-1.7656-1.2578 0-2.1875 0.62109-2.1875 1.5977 0 1.0234 0.9375 1.4922 1.9375 1.8242 0.85156 0.28516 1.0039 0.47656 1.0039 0.83203z"/>
        <path d="m12.828 3.0781v3.7148c0 0.70312-0.29688 0.99609-0.85938 0.99609-0.55859 0-0.87109-0.29297-0.87109-0.99609v-3.7148h-1.375v3.7148c0 1.332 0.91016 2.0508 2.2461 2.0508 1.3477 0 2.2305-0.71875 2.2305-2.0508v-3.7148z"/>
        <path d="m19.457 7.082c0-0.51953-0.24609-1.0469-0.91797-1.2188 0.58594-0.22266 0.80078-0.69922 0.80078-1.2148 0-1.0625-0.83984-1.5703-2.2422-1.5703h-2.043v5.6875h2.2656c1.4062 0 2.1367-0.56641 2.1367-1.6836zm-3.0312-2.9453h0.67188c0.60938 0 0.87109 0.19531 0.87109 0.67578 0 0.42188-0.24219 0.63672-0.87891 0.63672h-0.66406zm1.668 2.9258c0 0.35938-0.21484 0.64844-0.77344 0.64844h-0.89453v-1.3633h0.94922c0.51953 0 0.71875 0.27734 0.71875 0.71484z"/>
    </g>
</svg>
