<svg viewBox="91.98000000000002 198.36936936936934 838.0400000000002 577.7252252252251" xmlns="http://www.w3.org/2000/svg" xmlns:xlink="http://www.w3.org/1999/xlink" xmlns:blush="http://design.blush" overflow="visible" width="1000px" height="689.376670833403px"><g id="Master/Scenes/Media" stroke="none" stroke-width="1" fill="none" fill-rule="evenodd"><g id="Background" transform="translate(272.000000, 173.000000) scale(1 1)" fill="#000" blush:width="479" blush:height="563" blush:component="Background"><g id="Background/2" stroke="none" stroke-width="1" fill="none" fill-rule="evenodd"><path d="M466.705121,206.494529 C500.40786,311.266393 455.828938,440.185422 370.967859,498.004466 C286.241053,555.68936 161.23209,542.408419 85.9044541,482.44296 C10.4425448,422.611652 -15.3380364,316.364128 13.5308435,218.43396 C42.2654496,120.369642 125.78379,30.7568309 223.400887,26.1956998 C321.152257,21.5004177 433.136656,101.856816 466.705121,206.494529 Z" id="Path" fill-opacity=".04" fill="#000"/></g></g><g id="Group-80" transform="translate(95.000000, 266.000000)" fill="#000"><path d="M528.2697,3.2421 C521.4767,1.0021 514.0627,0.2561 506.4347,1.0341 C497.8297,1.9111 491.7357,5.2181 483.5977,8.0681 C476.6397,10.5051 466.6127,10.3241 460.4277,14.7091 C457.4277,16.8361 452.5957,21.4591 452.2917,29.9651 C452.0877,35.6851 454.8037,42.0581 459.6027,44.8151 C470.2697,50.9441 482.6817,40.7181 487.7237,31.8861 C496.5977,37.6871 501.6367,46.5031 499.8217,57.1541 C498.9657,62.1711 497.3037,67.0731 497.1127,72.1581 C496.7797,81.0361 501.3257,89.9441 508.7087,94.8841 C510.7797,96.2681 513.0887,97.3931 514.7127,99.2831 C517.2807,102.2701 517.6137,106.5031 518.0987,110.4121 C519.0337,117.9451 521.0837,125.6251 525.4507,131.9351 C529.7997,138.2231 537.8507,140.9441 541.5707,147.6231 C544.9507,153.6921 543.4437,161.3061 544.9437,167.8851 C546.6147,175.2151 548.9257,182.4021 552.8187,188.8801 C557.3667,196.4471 564.1677,202.8801 572.4927,205.8241 C582.1847,209.2511 592.7907,207.2341 600.2717,200.1681 C604.0427,196.6041 606.9387,192.0481 608.1997,187.0151 C609.7897,180.6671 608.7257,173.8881 606.3927,167.7731 C600.0817,151.2301 577.8147,138.4821 569.7087,122.9191 C559.9167,104.1161 563.8107,82.3511 563.6967,62.0851 C563.6237,48.9751 560.0367,34.6151 553.2707,23.3471 C547.2607,13.3401 538.4657,6.6061 528.2697,3.2421" id="Fill-4"/><path d="M466.029265,45.585969 C466.850584,45.6942524 467.428614,46.4478448 467.320331,47.2691645 C465.958402,57.5992694 465.941442,66.9176655 466.854915,75.5956589 L466.967709,76.6178279 C467.951124,85.1407623 469.577745,89.4850892 472.942001,92.8405839 C475.295723,95.1860764 478.173015,96.7506652 481.3794,97.6827215 C483.528929,98.3075628 485.284815,98.5422227 487.28829,98.6455154 C493.862237,99.0190351 499.999956,96.6078562 505.554263,92.2345702 C506.205147,91.7220846 507.148244,91.8342788 507.66073,92.4851628 C508.173215,93.1360469 508.061021,94.0791443 507.410137,94.5916298 C501.325959,99.3821194 494.507919,102.06056 487.125983,101.641111 C484.919091,101.527354 482.954755,101.264836 480.542,100.563479 C476.881562,99.4994348 473.563561,97.695201 470.823924,94.9651421 C466.743617,90.8954612 464.908251,85.7336351 463.871442,75.9101272 C462.934259,67.0068936 462.951647,57.4535942 464.346069,46.8770355 C464.447983,46.1040286 465.12152,45.5465309 465.885146,45.5738943 L466.029265,45.585969 Z" id="Stroke-6" fill-rule="nonzero"/><path d="M488.904436,98.6908202 C489.717443,98.5317267 490.505486,99.0618284 490.66458,99.8748357 C491.466293,103.971788 492.131782,108.166386 492.65264,112.462731 C494.19631,125.221537 494.283687,137.559486 493.21662,149.575582 C493.187395,149.904683 493.050331,150.214927 492.82671,150.458144 C485.058483,158.907097 477.493983,167.801674 470.175073,177.156959 C465.893461,182.631756 461.424061,188.979203 456.57346,196.372676 L455.582153,197.889904 C453.427478,201.201141 451.218352,204.682689 448.760318,208.625314 L440.809028,221.492221 C440.373098,222.196676 439.448634,222.414358 438.744179,221.978428 C438.039724,221.542498 437.822042,220.618034 438.257972,219.913579 L445.641141,207.958983 L446.780244,206.131913 C449.210848,202.242976 451.408044,198.792187 453.567379,195.487251 L454.065104,194.72703 C458.957777,187.26943 463.472855,180.857111 467.812082,175.308643 C474.68963,166.517522 481.782551,158.130491 489.056767,150.134989 L490.271,148.806 L490.336445,148.043035 C491.235131,137.050296 491.145891,125.78387 489.831513,114.165567 L489.674403,112.823428 C489.162375,108.599921 488.508266,104.477048 487.72042,100.450964 C487.561327,99.6379571 488.091428,98.8499137 488.904436,98.6908202 Z" id="Stroke-8" fill-rule="nonzero"/><path d="M568.228419,201.959086 C569.053485,201.884537 569.782766,202.492952 569.857314,203.318019 C571.296303,219.244106 573.938177,235.767856 578.159862,252.884228 C582.346815,269.881505 587.66145,285.7472 594.302021,301.984385 L595.018593,303.725574 C597.979896,310.876823 600.559501,316.696839 604.705861,325.670025 L611.065113,339.378409 C614.106693,345.99056 615.640166,349.53069 617.212222,353.557452 L617.738365,354.925371 C623.100515,369.110774 623.516572,378.27391 618.113885,385.853617 C612.529874,393.68804 601.887187,397.856896 587.985351,399.290092 C583.016538,399.802346 577.910891,399.927418 572.876556,399.759984 C569.566866,399.649908 566.866071,399.441511 564.68762,399.203922 C560.759157,398.769739 557.618759,398.115511 554.197405,397.073425 L553.509071,396.859786 C551.748762,396.303498 544.705628,393.802173 542.794759,393.16835 C537.58935,391.441748 532.128872,389.90653 525.207481,388.314902 L523.666967,387.963837 C513.149573,385.588359 508.065812,384.906504 498.549162,384.160831 L497.15842,384.053682 C493.301226,383.761045 491.546766,383.445313 489.548518,382.511314 C488.497009,382.01983 487.463194,381.365736 486.33722,380.483695 C481.84516,376.963765 479.144792,372.406062 477.620594,366.202694 L477.496287,365.681924 C476.419179,361.035495 476.005174,356.496176 475.648917,346.966495 L475.422543,340.476477 C474.792062,323.054944 474.021521,313.895027 471.618433,300.639318 L471.496911,299.973062 C468.515839,283.68594 464.085834,269.361431 458.663224,256.048853 C458.350712,255.281632 458.719326,254.406336 459.486547,254.093824 C460.253768,253.781312 461.129064,254.149926 461.441576,254.917147 C466.936924,268.408297 471.426447,282.925257 474.44777,299.43229 L474.691168,300.774928 C476.990994,313.622107 477.768866,322.7805 478.388077,339.480492 L478.665598,347.348861 C479.010444,356.340157 479.416401,360.680339 480.41879,365.004447 C481.772828,370.845499 484.149579,374.95817 488.18741,378.122172 C489.143224,378.870915 489.986768,379.404625 490.81883,379.793538 L491.15574,379.944329 C492.615783,380.568009 494.121017,380.814619 497.385371,381.062279 L499.432186,381.221294 C508.900183,381.976889 514.138772,382.714493 525.105055,385.213896 L525.879563,385.391154 C532.309448,386.869756 537.509854,388.304424 542.409678,389.885829 L543.73924,390.320903 C545.698938,390.970922 552.714415,393.462425 554.413058,393.999226 C557.925221,395.10913 561.027304,395.781108 565.01503,396.221842 L565.829457,396.306586 C567.787529,396.500749 570.15228,396.66772 572.976276,396.761641 C577.883106,396.924835 582.855757,396.803021 587.677699,396.305908 C600.803109,394.952758 610.71047,391.071937 615.670932,384.112359 C620.408533,377.465735 619.961494,369.097607 614.729238,355.453115 L613.933085,353.420338 C612.211788,349.104881 610.330062,344.899149 606.226325,336.063159 L601.97791,326.9184 C597.817884,317.915513 595.225774,312.067173 592.246839,304.873345 C585.215971,287.894503 579.622028,271.362811 575.247044,253.602204 C570.987177,236.331027 568.321535,219.658624 566.869486,203.587981 C566.794937,202.762915 567.403352,202.033634 568.228419,201.959086 Z" id="Stroke-10" fill-rule="nonzero"/><path d="M487.170717,377.377626 C487.576908,378.099637 487.320885,379.014226 486.598874,379.420417 L452.619838,398.549376 C411.307931,421.85939 402.496891,427.333264 388.323732,438.751764 C387.513891,439.40338 386.673329,440.050061 385.783103,440.708985 L385.019425,441.268591 C384.244594,441.830812 383.42868,442.406542 382.503056,443.046806 L378.387899,445.861108 L377.409713,446.539075 C370.395264,451.445396 366.837963,454.962231 364.175219,460.39981 L363.995025,460.773569 C363.6027,461.588791 363.246172,462.388545 362.838188,463.424976 C361.454952,466.920908 360.45438,470.788141 360.11844,474.894986 C359.668455,480.414434 360.495193,485.78168 362.897512,490.817825 C365.356625,495.978281 368.925367,499.84387 373.059655,502.809228 L373.549,503.153 L550.352,503.153 L550.3524,448.2531 C550.3524,447.473404 550.947288,446.832651 551.70794,446.759967 L551.8524,446.7531 C552.632096,446.7531 553.272849,447.347988 553.345533,448.10864 L553.3524,448.2531 L553.3524,504.6531 C553.3524,505.432796 552.757512,506.073549 551.99686,506.146233 L551.8524,506.1531 L373.0834,506.1531 C372.784199,506.1531 372.491835,506.063622 372.243884,505.896166 C367.336285,502.581773 363.078083,498.17052 360.189543,492.108911 C357.545304,486.565611 356.637497,480.672067 357.128393,474.650808 C357.490725,470.221326 358.563794,466.073891 360.047646,462.323674 C360.430199,461.351842 360.772898,460.568894 361.132836,459.806056 L361.288318,459.479865 C364.30433,453.126132 368.285414,449.211679 376.17969,443.739973 L380.330547,440.900873 C381.750477,439.924121 382.897398,439.112524 383.9983,438.297662 C384.857254,437.661885 385.666019,437.039666 386.442344,436.415019 L388.174113,435.028486 C401.5668,424.377932 411.373548,418.377868 451.13795,395.940913 L485.127926,376.805783 C485.849937,376.399592 486.764526,376.655615 487.170717,377.377626 Z" id="Stroke-12" fill-rule="nonzero"/><path d="M599.707469,394.821672 C599.907246,394.017694 600.72095,393.527892 601.524928,393.727669 C602.328906,393.927446 602.818708,394.74115 602.618931,395.545128 C598.609238,411.681668 591.126653,425.6462 579.161505,436.030404 L578.361354,436.71267 C578.206439,436.839512 578.014691,436.989923 577.608168,437.307158 C575.329861,439.00103 571.905109,440.939651 567.646089,442.997939 L567.152131,443.24568 C566.853108,443.392642 566.507758,443.557313 565.972829,443.810188 L564.505034,444.493133 C562.759701,445.294978 560.899042,446.114947 558.92138,446.95683 L556.322201,448.051574 C555.289018,448.482577 554.203347,448.925272 552.953033,449.427226 L552.406777,449.646116 C548.262994,451.294979 544.071485,452.858765 540.737115,454.023198 L538.738704,454.695257 C538.463927,454.785226 538.232344,454.859176 538.027705,454.922344 L537.908025,454.958993 C519.35705,460.577881 501.820731,463.397864 484.777618,464.369966 C483.950535,464.417141 483.241809,463.784901 483.194634,462.957818 C483.147459,462.130735 483.779699,461.422009 484.606782,461.374834 C501.016293,460.438872 517.888097,457.76728 535.699724,452.488893 L537.037366,452.088113 C537.57572,451.924638 538.354222,451.665903 539.75864,451.187275 L540.952113,450.766359 C543.813988,449.747689 547.191195,448.481769 550.571014,447.146753 L551.295114,446.859685 C552.765039,446.271715 554.000464,445.769524 555.168587,445.282235 L556.034673,444.918454 C558.92598,443.709809 561.571673,442.551276 563.977555,441.431931 L565.422256,440.750322 C565.773667,440.581785 566.021985,440.459103 566.310401,440.311899 L567.325714,439.815478 C570.981657,438.006909 573.89377,436.330482 575.789734,434.921363 L576.433902,434.413234 C576.508676,434.352381 576.570241,434.300653 576.642899,434.238496 C588.412989,424.254669 595.774135,410.650912 599.707469,394.821672 Z" id="Stroke-14" fill-rule="nonzero"/><path d="M385.22287,348.128414 C385.23453,346.921101 386.595093,346.22159 387.58377,346.914596 C400.059041,355.659045 413.166168,363.954254 426.969478,371.726261 C438.867746,378.434455 450.85178,384.50484 462.924944,390.008005 C463.678754,390.351606 464.011295,391.241233 463.667695,391.995044 C463.324094,392.748854 462.434467,393.081395 461.680656,392.737795 C449.530961,387.199744 437.47055,381.090672 425.496858,374.339954 C412.995475,367.301002 401.061187,359.835346 389.647263,351.997521 L388.189,350.991 L388.181354,351.688993 C388.051624,361.103083 387.766382,370.490164 387.317002,379.879616 L387.140774,383.400829 C386.092699,403.547168 384.329448,423.371219 381.901278,442.848464 C381.798794,443.670528 381.049299,444.253862 380.227236,444.151378 C379.405172,444.048894 378.821838,443.299399 378.924322,442.477336 C381.343664,423.070906 383.100532,403.318625 384.144842,383.244648 C384.755791,371.549355 385.109541,359.86315 385.22287,348.128414 Z" id="Stroke-16" fill-rule="nonzero"/><path d="M348.046729,305.011971 C356.457157,289.087788 375.778957,283.514689 396.340431,287.977451 C423.651472,293.889018 450.792462,303.599082 476.212161,316.505011 C476.950836,316.880047 477.245624,317.782887 476.870589,318.521561 C476.495553,319.260236 475.592713,319.555024 474.854039,319.179989 C449.661635,306.38946 422.763544,296.766296 395.704941,290.90937 C376.321311,286.702254 358.376047,291.87831 350.699374,306.413213 C347.299501,312.848321 345.637433,320.23944 344.73743,330.613794 C343.03632,350.123661 342.340596,368.18297 342.757153,385.348236 L343.177155,400.999641 C343.336375,407.349648 343.419795,411.728634 343.483162,416.864782 L343.51602,419.960845 C343.583636,427.615727 343.541511,434.647575 343.372393,441.428094 L343.345,442.433 L378.5431,442.4335 C379.322796,442.4335 379.963549,443.028388 380.036233,443.78904 L380.0431,443.9335 C380.0431,444.713196 379.448212,445.353949 378.68756,445.426633 L378.5431,445.4335 L341.8031,445.4335 C340.957077,445.4335 340.278443,444.734234 340.303772,443.888591 C340.54337,435.889409 340.599149,427.593294 340.500282,418.366483 L340.407266,411.682569 C340.337909,407.615582 340.241633,403.412049 340.087164,397.542479 L339.803717,387.146522 C339.293004,369.347212 339.981468,350.622211 341.748713,330.353858 L341.880862,328.907934 C342.84243,318.913713 344.585881,311.562493 348.046729,305.011971 Z" id="Stroke-18" fill-rule="nonzero"/><path d="M342.405088,443.274421 C342.739842,442.587534 343.54849,442.255051 344.278696,442.52841 C345.008902,442.80177 345.400417,443.583544 345.201806,444.321398 L345.158,444.456 L333.783631,474.802667 C333.659547,475.146284 333.415059,475.431044 333.098358,475.606054 L332.958348,475.67419 L291.968477,493.054135 C287.901947,494.778817 285.201088,498.659603 284.969045,503.030321 L284.964,503.153 L380.4128,503.1532 C381.192496,503.1532 381.833249,503.748088 381.905933,504.50874 L381.9128,504.6532 C381.9128,505.432896 381.317912,506.073649 380.55726,506.146333 L380.4128,506.1532 L283.4528,506.1532 C282.673104,506.1532 282.032351,505.558312 281.959667,504.79766 L281.9528,504.6532 L281.9528,503.6432 C281.9528,497.932746 285.300547,492.769497 290.489884,490.426748 L290.797252,490.29221 L331.191,473.165 L335.528349,461.624097 L342.349,443.404 L342.405088,443.274421 Z" id="Stroke-20" fill-rule="nonzero"/><path d="M331.368332,472.719606 C331.591065,471.921683 332.418471,471.455399 333.216394,471.678132 C336.662246,472.640011 340.267831,473.321555 344.002098,473.669354 C348.950511,474.129882 353.762733,473.968987 358.405654,473.288745 C359.22533,473.168652 359.987163,473.735778 360.107255,474.555454 C360.227348,475.37513 359.660222,476.136963 358.840546,476.257055 C353.968202,476.97091 348.917546,477.139777 343.723996,476.656436 C339.806461,476.291568 336.024581,475.5767 332.409806,474.567668 C331.611883,474.344935 331.145599,473.517529 331.368332,472.719606 Z" id="Stroke-22" fill-rule="nonzero"/><path d="M555.403977,445.415303 C555.894018,444.747357 556.832752,444.603136 557.500697,445.093177 C561.858138,448.290029 566.119918,451.574242 570.553429,455.13408 L571.888902,456.210488 C574.978564,458.710153 578.076081,461.277063 581.773261,464.391548 L590.687905,471.926006 C612.42768,490.290042 615.921812,493.02605 629.777303,502.975181 C630.961075,503.825205 630.359746,505.6936 628.9024,505.6936 L623.168669,505.706731 C619.547091,505.7265 616.938562,505.770025 614.142143,505.846856 L609.265263,505.99508 C605.827663,506.093076 602.854443,506.13815 598.021699,506.150182 L594.9934,506.1536 C590.667987,506.1536 587.705028,503.904736 584.118801,499.148365 L583.695978,498.579575 C583.251304,497.973257 582.350344,496.731604 582.146637,496.455865 C577.13161,489.6788 570.00171,485.080755 559.853507,481.35596 L558.697779,480.940645 C558.40997,480.839836 558.114867,480.738707 557.778434,480.625553 L554.120148,479.41728 C553.002219,479.041608 552.173363,478.745737 551.310301,478.411217 C550.537866,478.111823 550.15439,477.242935 550.453783,476.470501 C550.753177,475.698066 551.622065,475.31459 552.394499,475.613983 L552.83993,475.784161 C553.659403,476.092651 554.51344,476.388772 555.713564,476.786194 L558.746172,477.785876 C559.297687,477.971423 559.744399,478.126663 560.229288,478.300841 C571.011023,482.171989 578.7236,487.008194 584.231066,494.235762 L584.799492,495.000984 C585.191518,495.538349 585.881051,496.487548 586.19054,496.908073 L586.265014,497.008947 C589.449731,501.303735 591.80228,503.1536 594.9934,503.1536 L599.881567,503.143437 C603.864,503.123954 606.551097,503.074653 609.732811,502.980201 L613.531135,502.862835 C616.300006,502.783413 618.819533,502.736309 622.199256,502.712702 L624.265,502.701 L620.756774,500.14645 C612.208553,493.867049 606.553991,489.247559 590.109992,475.364604 L580.462036,467.209953 C576.7096,464.044271 573.59022,461.453105 570.514333,458.957844 L570.001987,458.542773 C565.119531,454.592664 560.479107,450.999081 555.726103,447.512023 C555.058157,447.021982 554.913936,446.083248 555.403977,445.415303 Z" id="Stroke-24" fill-rule="nonzero"/><path d="M599.7437,503.1532 C600.572127,503.1532 601.2437,503.824773 601.2437,504.6532 C601.2437,505.432896 600.648812,506.073649 599.88816,506.146333 L599.7437,506.1532 L551.8527,506.1532 C551.024273,506.1532 550.3527,505.481627 550.3527,504.6532 C550.3527,503.873504 550.947588,503.232751 551.70824,503.160067 L551.8527,503.1532 L599.7437,503.1532 Z" id="Stroke-26" fill-rule="nonzero"/><path d="M455.329124,211.771468 C456.012925,211.303807 456.94637,211.479022 457.414032,212.162824 C461.35289,217.922107 464.975444,224.087673 468.212638,230.721116 C471.291331,237.022366 473.636456,242.800458 475.633755,248.870785 C475.892675,249.657711 475.464641,250.505536 474.677715,250.764455 C473.890789,251.023375 473.042964,250.595341 472.784045,249.808415 C470.829265,243.867315 468.535589,238.215986 465.516857,232.03746 C462.345334,225.538588 458.796535,219.498552 454.937768,213.856376 C454.470107,213.172575 454.645322,212.23913 455.329124,211.771468 Z" id="Stroke-28" fill-rule="nonzero"/><path d="M268.758712,134.228636 C265.821399,130.032054 270.915338,124.60131 275.161026,127.545813 C275.334539,127.664614 275.496842,127.794141 275.64214,127.930183 C282.545775,134.339101 288.382031,141.889674 292.843627,150.184946 L293.460584,151.348918 C294.719518,153.761121 295.848009,156.164097 297.493061,159.877836 L299.789125,165.106345 C305.036765,176.98132 308.095397,182.379216 313.262562,187.677405 L313.527137,187.94675 C318.862282,193.341517 325.314622,197.783649 335.366926,203.429452 L337.380305,204.550023 C339.059536,205.476652 345.518027,208.981362 347.038301,209.819705 L348.197536,210.461766 C348.760346,210.774966 349.299265,211.077194 349.82022,211.371936 L354.472563,214.030139 C356.158344,214.981011 357.878316,215.926912 360.480693,217.335294 L370.704428,222.840824 C381.345978,228.596405 387.467013,232.18863 394.220482,236.823811 C397.708062,239.21774 402.189506,239.543774 405.951403,237.688127 L406.263192,237.528437 L480.578192,198.644437 C481.312213,198.260374 482.218599,198.544071 482.602663,199.278092 C482.964134,199.968935 482.734095,200.812462 482.093823,201.229506 L481.969008,201.302563 L407.662445,240.182114 C402.856846,242.73561 397.025952,242.388278 392.522781,239.297232 L391.331569,238.486229 C385.132958,234.300909 379.191321,230.841573 369.265006,225.472988 L357.930192,219.365119 C355.561035,218.078236 353.949165,217.184764 352.24251,216.215077 L348.849673,214.270574 C348.011165,213.79322 347.12762,213.297847 346.171928,212.768537 L342.096356,210.539862 C339.7323,209.252594 336.956012,207.742335 335.930885,207.176652 L334.549797,206.410208 C323.896538,200.463087 317.088215,195.814036 311.394241,190.05643 L310.844851,189.493391 C305.517425,183.956117 302.351267,178.326759 297.047988,166.325518 L294.957176,161.561069 C293.02504,157.185882 291.82077,154.637187 290.354241,151.890907 L290.201555,151.606021 C286.044645,143.877241 280.649913,136.81682 274.282407,130.76866 L273.596464,130.124532 C273.559803,130.090211 273.516421,130.05559 273.458775,130.016088 C272.017224,129.016344 270.158966,130.997467 271.216015,132.507689 L271.529754,132.949173 C271.673398,133.148511 271.82612,133.356823 272.001809,133.59336 L273.323474,135.354037 C275.145224,137.799004 276.00962,139.170973 276.776265,141.021102 L277.055716,141.710415 C278.872698,146.29681 279.785075,150.758109 280.745263,158.417054 L281.245618,162.562243 C282.955209,176.506336 284.773331,182.618288 290.330095,188.839419 L290.57406,189.109996 C293.932638,192.801126 297.434871,195.514207 304.111972,199.895049 L308.118001,202.497432 L308.923351,203.026186 C313.062736,205.767115 316.912939,208.680019 322.588905,213.251565 L327.426684,217.170865 C343.702552,230.353186 359.374386,243.241874 374.578898,255.960855 L379.370473,259.976083 C384.92272,264.638145 390.344509,269.223957 395.659762,273.755029 C398.911566,276.527356 403.402921,277.28948 407.362674,275.760809 L407.67415,275.63536 L486.31615,242.63236 C487.080037,242.311786 487.959166,242.671162 488.27974,243.43505 C488.581457,244.154002 488.280865,244.975038 487.607599,245.336408 L487.47705,245.39864 L408.835031,278.401648 C403.755803,280.53312 397.911325,279.616882 393.713494,276.038019 C386.887016,270.218678 379.884197,264.308593 372.654157,258.262023 C358.41152,246.347676 343.758012,234.283904 328.581035,221.968657 L320.714274,215.593757 C315.103892,211.074917 311.31575,208.208719 307.268439,205.528461 L302.438497,202.385181 C295.573792,197.880431 291.924478,195.051763 288.355216,191.129087 C284.739498,187.155958 282.346279,182.55493 280.764932,177.013161 L280.520634,176.133123 C279.631834,172.835736 279.113843,169.768453 278.431414,164.273092 L277.839519,159.361435 C276.859961,151.409832 275.968647,147.014632 274.140326,142.500298 L274.004859,142.169714 C273.38449,140.672588 272.651537,139.489295 271.109181,137.4043 L269.531716,135.298966 C269.237678,134.902043 269.001748,134.575459 268.758712,134.228636 Z" id="Stroke-30" fill-rule="nonzero"/><path d="M525.821842,133.615365 C526.441746,133.06581 527.38978,133.122839 527.939335,133.742742 C528.48889,134.362646 528.431861,135.31068 527.811958,135.860235 C523.905304,139.323551 518.514832,142.778291 512.062296,145.916556 L511.352495,146.255782 C506.07043,148.732424 501.6398,149.710953 492.582316,150.660622 C491.758406,150.747009 491.020464,150.149127 490.934078,149.325216 C490.847691,148.501306 491.445573,147.763364 492.269484,147.676978 L493.960266,147.493083 C501.759338,146.610935 505.667839,145.649442 510.417072,143.379395 L510.749838,143.218881 C516.971651,140.19283 522.135659,136.88323 525.821842,133.615365 Z" id="Stroke-32" fill-rule="nonzero"/><path d="M83.7411462,189.416639 L56.9521462,281.966639 C56.721809,282.762402 57.1801789,283.59422 57.9759427,283.824555 L150.526943,310.613555 C151.322705,310.843889 152.154521,310.38552 152.384855,309.589757 L179.173855,217.038757 C179.404191,216.242989 178.945813,215.411169 178.150043,215.180841 L85.5990429,188.392841 C84.8032856,188.162516 83.9714807,188.620884 83.7411462,189.416639 Z M86.205,191.691 L175.875,217.645 L149.92,307.314 L60.25,281.359 L86.205,191.691 Z" id="Stroke-46" fill-rule="nonzero"/><path d="M98.6223418,231.769023 C99.2989794,231.403417 100.133878,231.610869 100.565107,232.229564 L100.641094,232.350349 L115.852094,259.249349 C116.259874,259.970464 116.005866,260.885614 115.284751,261.293394 C114.606055,261.677187 113.755479,261.47476 113.317791,260.848418 L113.240706,260.726051 L98.753,235.108 L68.4324582,251.491377 C67.7464933,251.862023 66.8999757,251.643245 66.4744361,251.008588 L66.3997227,250.884758 C66.029077,250.198793 66.2478546,249.352276 66.8825123,248.926736 L67.0063418,248.852023 L98.6223418,231.769023 Z" id="Stroke-47" fill-rule="nonzero"/><path d="M132.166636,248.763726 C132.843236,248.398136 133.678092,248.605542 134.109344,249.224174 L134.185337,249.344947 L150.358337,277.939947 C150.766173,278.66103 150.512236,279.5762 149.791153,279.984037 C149.112486,280.367883 148.261895,280.165521 147.824158,279.539214 L147.747063,279.416853 L132.298,252.102 L86.2127641,277.004074 C85.5268009,277.374723 84.6802823,277.155949 84.2547399,276.521293 L84.1800259,276.397464 C83.8093771,275.711501 84.0281509,274.864982 84.6628067,274.43944 L84.7866359,274.364726 L132.166636,248.763726 Z" id="Stroke-48" fill-rule="nonzero"/><path d="M155.7272,234.0379 C154.4082,238.5959 149.6432,241.2209 145.0852,239.9009 C140.5272,238.5829 137.9012,233.8179 139.2212,229.2599 C140.5402,224.7019 145.3052,222.0759 149.8632,223.3949 C154.4212,224.7149 157.0462,229.4789 155.7272,234.0379" id="Fill-49"/><path d="M272.28517,27.469354 C273.039264,27.2711918 273.81017,27.6836968 274.07379,28.4008988 L274.117146,28.5388702 L303.768146,141.37387 C303.978693,142.175095 303.499855,142.995299 302.69863,143.205846 C301.944536,143.404008 301.17363,142.991503 300.91001,142.274301 L300.866654,142.13633 L271.596,30.751 L161.663,59.64 L190.552,169.574 L261.401173,150.956353 C262.155267,150.758192 262.926172,151.170699 263.189791,151.887901 L263.233147,152.025873 C263.431308,152.779967 263.018801,153.550872 262.301599,153.814491 L262.163627,153.857847 L189.863627,172.856847 C189.109534,173.055007 188.33863,172.642502 188.07501,171.925301 L188.031654,171.78733 L158.380654,58.9523298 C158.182492,58.1982358 158.594997,57.4273303 159.312199,57.1637101 L159.45017,57.120354 L272.28517,27.469354 Z" id="Stroke-50" fill-rule="nonzero"/><path d="M209.743048,82.875208 L220.997048,125.704208 C221.290503,126.821 222.682877,127.201318 223.503316,126.38878 L254.967316,95.2277795 C255.787754,94.4152423 255.420929,93.0192561 254.307032,92.715006 L211.589032,81.047006 C210.475139,80.7427571 209.449595,81.7584224 209.743048,82.875208 Z M213.304,84.625 L251.011,94.924 L223.238,122.429 L213.304,84.625 Z" id="Stroke-51" fill-rule="nonzero"/><path d="M115.6481,120.9237 C115.6481,131.4907 107.0811,140.0587 96.5131,140.0587 C85.9451,140.0587 77.3781,131.4907 77.3781,120.9237 C77.3781,110.3557 85.9451,101.7887 96.5131,101.7887 C107.0811,101.7887 115.6481,110.3557 115.6481,120.9237" id="Fill-52"/><path d="M261.4543,256.4032 C261.4543,263.2392 255.9123,268.7812 249.0773,268.7812 C242.2413,268.7812 236.6993,263.2392 236.6993,256.4032 C236.6993,249.5672 242.2413,244.0262 249.0773,244.0262 C255.9123,244.0262 261.4543,249.5672 261.4543,256.4032" id="Fill-53"/><path d="M382.3459,89.6747 C382.3459,97.6387 375.8889,104.0947 367.9249,104.0947 C359.9609,104.0947 353.5049,97.6387 353.5049,89.6747 C353.5049,81.7097 359.9609,75.2537 367.9249,75.2537 C375.8889,75.2537 382.3459,81.7097 382.3459,89.6747" id="Fill-54"/><path d="M322.316707,263.568577 C323.008217,263.208354 323.851339,263.43994 324.267212,264.080988 L324.34004,264.205939 L333.84004,282.443939 C334.222752,283.178665 333.937388,284.084528 333.202661,284.46724 C332.511154,284.82744 331.668052,284.595848 331.252187,283.95481 L331.17936,283.829861 L322.372,266.922 L258.09,300.408 L291.575,364.691 L320.57771,349.583575 C321.26921,349.22336 322.112317,349.454933 322.528196,350.095963 L322.601025,350.22091 C322.96124,350.91241 322.729667,351.755517 322.088637,352.171396 L321.96369,352.244225 L291.63069,368.045225 C290.939183,368.405443 290.096067,368.173861 289.680192,367.532819 L289.607364,367.407869 L254.736364,300.463869 C254.376165,299.772373 254.60774,298.92928 255.248762,298.513405 L255.373707,298.440577 L322.316707,263.568577 Z" id="Stroke-55" fill-rule="nonzero"/><path d="M285.482033,316.032763 C286.173538,315.67256 287.016642,315.904148 287.43251,316.545185 L287.505337,316.670133 L295.108337,331.266133 C295.491052,332.000857 295.205692,332.906722 294.470967,333.289437 C293.779462,333.64964 292.936358,333.418052 292.52049,332.777015 L292.447663,332.652067 L284.844663,318.056067 C284.461948,317.321343 284.747308,316.415478 285.482033,316.032763 Z" id="Stroke-56" fill-rule="nonzero"/><path d="M291.02392,305.93027 C291.715423,305.57006 292.558528,305.80164 292.974402,306.442673 L293.04723,306.56762 L306.56323,332.51462 C306.945953,333.249341 306.660601,334.155208 305.92588,334.53793 C305.234377,334.89814 304.391272,334.66656 303.975398,334.025527 L303.90257,333.90058 L290.38657,307.95358 C290.003847,307.218859 290.289199,306.312992 291.02392,305.93027 Z" id="Stroke-57" fill-rule="nonzero"/><path d="M302.479495,307.179283 C303.170991,306.819061 304.014101,307.050624 304.429987,307.691649 L304.502817,307.816595 L312.105817,322.411595 C312.488553,323.146309 312.203219,324.052182 311.468505,324.434917 C310.777009,324.795139 309.933899,324.563576 309.518013,323.922551 L309.445183,323.797605 L301.842183,309.202605 C301.459447,308.467891 301.744781,307.562018 302.479495,307.179283 Z" id="Stroke-58" fill-rule="nonzero"/><path d="M308.02152,297.07577 C308.713023,296.71556 309.556128,296.94714 309.972002,297.588173 L310.04483,297.71312 L323.56083,323.66012 C323.943553,324.394841 323.658201,325.300708 322.92348,325.68343 C322.231977,326.04364 321.388872,325.81206 320.972998,325.171027 L320.90017,325.04608 L307.38417,299.09908 C307.001447,298.364359 307.286799,297.458492 308.02152,297.07577 Z" id="Stroke-59" fill-rule="nonzero"/><path d="M319.476633,298.324763 C320.168138,297.96456 321.011242,298.196148 321.42711,298.837185 L321.499937,298.962133 L329.102937,313.558133 C329.485652,314.292857 329.200292,315.198722 328.465567,315.581437 C327.774062,315.94164 326.930958,315.710052 326.51509,315.069015 L326.442263,314.944067 L318.839263,300.348067 C318.456548,299.613343 318.741908,298.707478 319.476633,298.324763 Z" id="Stroke-60" fill-rule="nonzero"/><path d="M373.0832,504.6532 L283.4532,504.6532 L283.4532,503.6432 C283.4532,498.4232 286.5732,493.7132 291.3832,491.6732 L332.3732,474.2932 C332.5032,473.9322 332.6532,473.5432 332.8132,473.1232 C336.0732,474.0332 339.7832,474.7832 343.8632,475.1632 C349.3432,475.6732 354.3232,475.4032 358.6232,474.7732 C358.2132,479.8022 358.7632,485.6322 361.5432,491.4632 C364.8832,498.4722 370.0932,502.6322 373.0832,504.6532" id="Fill-61"/><path d="M628.9025,504.1932 C608.7435,504.1932 614.1425,504.6532 594.9935,504.6532 C589.4535,504.6532 586.2625,499.5032 583.3525,495.5632 C577.4325,487.5632 568.9135,483.0122 559.7225,479.7132 C557.1325,478.7832 554.4325,478.0122 551.8525,477.0122 L551.8525,448.2532 C553.4025,447.6322 555.0035,446.9832 556.6135,446.3022 C581.8025,464.7832 598.0125,482.0122 628.9025,504.1932" id="Fill-62"/><path d="M831.7442,503.1532 C832.572627,503.1532 833.2442,503.824773 833.2442,504.6532 C833.2442,505.432896 832.649312,506.073649 831.88866,506.146333 L831.7442,506.1532 L0.5002,506.1532 C-0.328227125,506.1532 -0.9998,505.481627 -0.9998,504.6532 C-0.9998,503.873504 -0.404911917,503.232751 0.355739989,503.160067 L0.5002,503.1532 L831.7442,503.1532 Z" id="Stroke-70" fill-rule="nonzero"/><path d="M228.946,383.511 L36.249,383.511 C35.4205729,383.511 34.749,384.182573 34.749,385.011 L34.749,504.653 C34.749,505.481427 35.4205729,506.153 36.249,506.153 L228.946,506.153 C229.774427,506.153 230.446,505.481427 230.446,504.653 L230.446,385.011 C230.446,384.182573 229.774427,383.511 228.946,383.511 Z M227.445,386.511 L227.445,503.153 L37.748,503.153 L37.748,386.511 L227.445,386.511 Z" id="Stroke-71" fill-rule="nonzero"/><path d="M96.5133,383.5122 C97.2929961,383.5122 97.9337487,384.107088 98.0064334,384.86774 L98.0133,385.0122 L98.0133,504.6532 C98.0133,505.481627 97.3417271,506.1532 96.5133,506.1532 C95.7336039,506.1532 95.0928513,505.558312 95.0201666,504.79766 L95.0133,504.6532 L95.0133,385.0122 C95.0133,384.183773 95.6848729,383.5122 96.5133,383.5122 Z" id="Stroke-72" fill-rule="nonzero"/><path d="M76.5133,349.5848 L16.2493,349.5848 C15.0885481,349.5848 14.3676494,350.846607 14.957114,351.846545 L34.957114,385.773545 C35.2267937,386.231016 35.7182566,386.5118 36.2493,386.5118 L96.5133,386.5118 C97.6740519,386.5118 98.3949506,385.249993 97.805486,384.250055 L77.805486,350.323055 C77.5358063,349.865584 77.0443434,349.5848 76.5133,349.5848 Z M75.656,352.584 L93.888,383.511 L37.105,383.511 L18.874,352.584 L75.656,352.584 Z" id="Stroke-73" fill-rule="nonzero"/><path d="M248.8281,349.5848 L188.5641,349.5848 C188.033057,349.5848 187.541594,349.865584 187.271914,350.323055 L167.271914,384.250055 C166.682449,385.249993 167.403348,386.5118 168.5641,386.5118 L228.8281,386.5118 C229.359143,386.5118 229.850606,386.231016 230.120286,385.773545 L250.120286,351.846545 C250.709751,350.846607 249.988852,349.5848 248.8281,349.5848 Z M246.202,352.584 L227.971,383.511 L171.189,383.511 L189.421,352.584 L246.202,352.584 Z" id="Stroke-74" fill-rule="nonzero"/><polygon id="Fill-75" points="36.249 504.653 96.513 504.653 96.513 385.011 36.249 385.011"/><path d="M174.6945,383.5129 L149.0525,383.5129 C148.224073,383.5129 147.5525,384.184473 147.5525,385.0129 L147.5525,413.8289 L147.55782,413.957865 C147.642304,414.97479 148.717413,415.626687 149.670577,415.195641 L161.873,409.676 L174.076423,415.195641 C175.069302,415.644647 176.1945,414.918586 176.1945,413.8289 L176.1945,385.0129 C176.1945,384.184473 175.522927,383.5129 174.6945,383.5129 Z M173.194,386.512 L173.194,411.504 L162.491577,406.664159 L162.341771,406.605858 C161.986988,406.489257 161.599208,406.50869 161.255423,406.664159 L150.552,411.504 L150.552,386.512 L173.194,386.512 Z" id="Stroke-76" fill-rule="nonzero"/><path d="M174.694,473.931 L149.052,473.931 C148.223573,473.931 147.552,474.602573 147.552,475.431 L147.552,504.246 C147.552,505.074427 148.223573,505.746 149.052,505.746 L174.694,505.746 C175.522427,505.746 176.194,505.074427 176.194,504.246 L176.194,475.431 C176.194,474.602573 175.522427,473.931 174.694,473.931 Z M173.193,476.931 L173.193,502.746 L150.551,502.746 L150.551,476.931 L173.193,476.931 Z" id="Stroke-77" fill-rule="nonzero"/><path d="M489.1925,100.1629 C491.7705,100.0589 495.6245,99.6899 499.6175,97.6699 C503.1455,95.8849 507.1975,92.1969 509.2135,90.7569 C509.2135,94.0269 507.4275,100.1829 503.8535,104.5929 C499.0685,110.4979 493.1075,112.3629 491.4065,112.8199 C490.5785,107.6249 491.0745,110.3939 490.5145,107.2789 C489.9925,104.3689 489.9745,103.6979 489.1925,100.1629" id="Fill-78"/><path d="M508.341643,89.5362998 L507.997717,89.7936711 C506.92177,90.6171378 504.282603,92.7331245 503.641448,93.2240795 C502.68243,93.9584343 501.818412,94.5812202 501.003754,95.1168453 C500.261782,95.604681 499.574226,96.0107318 498.940314,96.3314611 C495.830694,97.904572 492.774254,98.5171872 489.132037,98.6641191 C488.198441,98.7017816 487.526092,99.5745921 487.727908,100.486892 L488.036401,101.919202 C488.215726,102.781267 488.349709,103.492981 488.482343,104.265946 L488.859662,106.525569 L489.375076,109.481532 L489.513471,110.425112 C489.606342,111.038399 489.738725,111.886044 489.925197,113.055996 C490.065324,113.935173 490.935913,114.499523 491.795697,114.268529 C496.284839,113.062451 501.028353,110.461868 505.018908,105.537265 C508.43773,101.318741 510.7135,94.9519339 510.7135,90.7569 C510.7135,89.5368412 509.334445,88.827155 508.341643,89.5362998 Z M507.237,94.209 L507.149722,94.5571944 C506.347187,97.627482 504.742188,101.113962 502.68815,103.648464 C500.679366,106.127434 498.316965,108.028103 495.7524,109.4341 L495.318157,109.6667 C494.456805,110.117214 493.638292,110.480565 492.863369,110.773896 L492.616,110.864 L492.286176,108.673343 L491.901645,106.510485 L491.4389,103.757252 C491.348347,103.229582 491.257003,102.728332 491.152434,102.1937 L491.023,101.55 L491.308486,101.525718 C494.490887,101.224794 497.357546,100.494195 500.294615,99.0083751 C501.038183,98.6321652 501.821117,98.1697867 502.651887,97.6235681 C503.407477,97.1267787 504.191381,96.5685741 505.03715,95.9312854 L505.756364,95.3800208 L507.237,94.209 Z" id="Stroke-79" fill-rule="nonzero"/></g><g id="Element" transform="translate(714.000000, 369.000000) scale(1 1)" fill="#000" blush:width="253" blush:height="403" blush:component="Element"><g id="Element/Succulent" stroke="none" stroke-width="1" fill="none" fill-rule="evenodd"><g id="Group" transform="translate(54.000000, 236.000000)" fill="#000"><path d="M133.5279,92.3479 L2.8359,92.3479 C2.00747288,92.3479 1.3359,93.0194729 1.3359,93.8479 L1.3359,166.8139 C1.3359,167.642327 2.00747288,168.3139 2.8359,168.3139 L133.5279,168.3139 C134.356327,168.3139 135.0279,167.642327 135.0279,166.8139 L135.0279,93.8479 C135.0279,93.0194729 134.356327,92.3479 133.5279,92.3479 Z M132.027,95.347 L132.027,165.313 L4.335,165.313 L4.335,95.347 L132.027,95.347 Z" id="Stroke-64" fill-rule="nonzero"/><path d="M120.487,14.607 L120.384189,14.7146746 C119.996298,15.1229444 119.602159,15.5514545 119.199578,16.0019976 L118.794103,16.4599514 C116.820432,18.7089501 109.472015,28.0323773 108.937495,28.6869481 C104.698633,33.8851817 96.6509365,47.152828 90.7307103,57.8256099 C89.8734812,59.3709932 87.5156376,58.4209749 87.9692579,56.7129703 L88.1510676,56.0169566 C89.8715951,49.3301002 93.0271251,34.4266551 93.6311575,29.3330638 L93.8014157,27.749143 C94.9840047,16.5179084 95.3968793,9.75579161 94.9854711,4.28759771 L94.959,3.958 L94.6083682,4.45974794 C88.0788837,13.873063 82.7649575,24.552098 79.2699393,36.887217 L79.0046895,37.8393453 C76.5962477,46.6303341 75.4218366,55.2188873 75.1904338,63.6382115 C75.1415407,65.4171292 72.5857441,65.6452549 72.2225682,63.9031177 C70.1976051,54.1894681 67.3915008,44.3370286 63.6724363,34.4014987 C59.8893548,24.309206 55.456194,14.9042848 50.4987381,6.10514062 L50.306,5.767 L50.3020393,5.88186321 C50.0325372,14.0158183 50.1482334,22.3058023 50.700144,30.765574 L50.8251059,32.580986 C51.666243,44.2316092 53.2834136,55.4400782 55.5510817,66.2562076 C55.919102,68.0115593 53.4540801,68.8159232 52.7159301,67.181349 C48.9744672,58.8961785 44.2719627,50.7464285 38.3224957,42.8023272 C32.7563078,35.3720699 26.7168788,28.9388806 20.3269615,23.3048603 L19.638,22.702 L19.8361982,23.5553296 C21.6545084,31.2711724 24.0223771,39.0467528 27.0366051,46.8809067 L27.5449778,48.1871412 C31.202973,57.4909547 35.4744443,66.1144865 40.2193382,74.1191292 C41.171351,75.7251761 38.9188731,77.2789139 37.7556908,75.8185296 C32.7146016,69.4894031 26.6361431,63.6634794 19.0734373,58.6027267 C13.7317324,55.0198146 8.30686189,52.2703618 2.81964667,50.1606993 L2.643,50.093 L2.93536077,50.7885674 C6.81471659,59.9061073 11.911549,68.8608467 18.6074888,77.5204868 L19.3058922,78.4152536 C23.4623763,83.6867573 27.913449,88.4431436 32.5991528,92.7427877 C33.2095447,93.3028888 33.2503134,94.2517609 32.6902123,94.8621528 C32.1301112,95.4725447 31.1812391,95.5133134 30.5708472,94.9532123 C25.7696669,90.5476057 21.2088876,85.6739878 16.9497684,80.2723158 C8.77215062,69.8931672 2.86637636,59.0935449 -1.39859601,48.0911524 C-1.85845517,46.904849 -0.725417313,45.7207342 0.479997254,46.1278728 C7.33250055,48.4423613 14.1000822,51.6545333 20.7432114,56.110368 C24.5266825,58.6421613 27.9516929,61.358761 31.070199,64.2294412 L31.706,64.821 L31.089835,63.5879765 C29.0263839,59.4207085 27.0875456,55.1042308 25.2886852,50.6318237 L24.7532418,49.285417 C20.7440947,39.1004382 17.8166023,29.0121732 15.7656548,19.0237029 C15.4821059,17.6427705 17.0874284,16.6688081 18.1812634,17.5581333 C26.2541097,24.1216334 33.8420459,31.817672 40.7236242,41.0038329 C44.3760718,45.8808099 47.5691081,50.8333699 50.3659422,55.845977 L50.633,56.329 L50.4529834,55.2321863 C49.3620368,48.4951274 48.5240466,41.6087814 47.9664584,34.5623166 L47.832919,32.7973583 C47.0335324,21.7603943 46.9698461,11.0089532 47.5321483,0.513749512 C47.6113202,-0.963971077 49.5557398,-1.44647152 50.316569,-0.17719405 C56.4859186,10.1150195 61.9444411,21.2446202 66.4818077,33.3491528 C68.9981231,40.0715221 71.1026114,46.7563362 72.8349875,53.38717 L72.898,53.635 L72.9611339,53.0902301 C73.5552172,48.1648525 74.4907511,43.1800503 75.8203125,38.129969 L76.1112687,37.0468075 C80.1442555,22.3200067 86.6846414,9.87690265 94.7796243,-0.900831791 C95.5712892,-1.95486175 97.2399668,-1.54844283 97.4582855,-0.248423801 L97.5605687,0.387530818 C98.5578138,6.87443928 98.256209,14.0786456 96.792115,27.9950642 L96.6443616,29.38575 C96.3241818,32.3562239 95.0395028,39.0251322 93.6751073,45.4024568 L93.25,47.364 L94.2158612,45.7276131 C98.6268587,38.292351 103.148447,31.1931117 106.171825,27.3422514 L111.899996,20.1508849 C113.787796,17.7941591 115.661854,15.4809473 116.539256,14.4811479 C118.264153,12.5156271 119.852465,10.9138661 121.45836,9.55568953 C122.484574,8.68777459 124.046478,9.50363557 123.920384,10.8417281 C123.029175,20.2990983 121.115194,29.927088 117.911888,39.6977146 C113.721167,52.4374718 107.856987,63.8062143 100.764623,74.017215 C98.7209097,76.9569966 96.6193138,79.7335926 94.4674106,82.3720515 C93.9438162,83.0140332 92.9989301,83.110005 92.3569485,82.5864106 C91.7149668,82.0628162 91.618995,81.1179301 92.1425894,80.4759485 C94.2472527,77.8954106 96.3026811,75.1798105 98.3010237,72.305293 C105.234835,62.3225641 110.966669,51.2103947 115.061648,38.7616977 C117.691066,30.7415231 119.431698,22.8186142 120.437672,15.0098692 L120.487,14.607 Z" id="Stroke-65" fill-rule="nonzero"/><path d="M145.639316,49.9913178 C146.97649,49.6886132 147.985459,51.1904692 147.199711,52.3139752 C141.943382,59.829761 135.951382,67.1136455 129.105215,74.0788275 C121.19865,82.1221455 112.800267,89.0787788 104.050397,95.0849785 C103.367398,95.5538114 102.433654,95.3801957 101.964821,94.697197 C101.495989,94.0141983 101.669604,93.0804543 102.352603,92.6116215 C110.94835,86.7112165 119.198671,79.8772276 126.96574,71.9758188 C132.32514,66.5232491 137.151689,60.8718747 141.504264,55.0648835 L142.388,53.874 L142.194968,53.9246068 C136.030423,55.5550301 129.846347,57.7314767 123.650645,60.5695062 L122.617922,61.0486567 C117.287231,63.5559062 106.889032,69.9328546 100.381147,74.3981498 C99.6980542,74.8668449 98.7643452,74.6930408 98.2956502,74.0099475 C97.8269551,73.3268542 98.0007592,72.3931452 98.6838525,71.9244502 L99.6113092,71.2928052 C106.260349,66.7964659 116.080398,60.8082633 121.34158,58.3337071 C129.466119,54.5160652 137.570963,51.8178009 145.639316,49.9913178 Z" id="Stroke-66" fill-rule="nonzero"/><path d="M22.6526,118.8576 C22.6526,121.8896 20.1946,124.3466 17.1636,124.3466 C14.1316,124.3466 11.6736,121.8896 11.6736,118.8576 C11.6736,115.8266 14.1316,113.3686 17.1636,113.3686 C20.1946,113.3686 22.6526,115.8266 22.6526,118.8576" id="Fill-67"/><path d="M48.1614,118.8576 C48.1614,121.8896 45.7034,124.3466 42.6724,124.3466 C39.6404,124.3466 37.1824,121.8896 37.1824,118.8576 C37.1824,115.8266 39.6404,113.3686 42.6724,113.3686 C45.7034,113.3686 48.1614,115.8266 48.1614,118.8576" id="Fill-68"/><path d="M73.6702,118.8576 C73.6702,121.8896 71.2132,124.3466 68.1812,124.3466 C65.1492,124.3466 62.6912,121.8896 62.6912,118.8576 C62.6912,115.8266 65.1492,113.3686 68.1812,113.3686 C71.2132,113.3686 73.6702,115.8266 73.6702,118.8576" id="Fill-69"/><path d="M99.18,118.8576 C99.18,121.8896 96.722,124.3466 93.691,124.3466 C90.659,124.3466 88.201,121.8896 88.201,118.8576 C88.201,115.8266 90.659,113.3686 93.691,113.3686 C96.722,113.3686 99.18,115.8266 99.18,118.8576" id="Fill-70"/><path d="M124.6888,118.8576 C124.6888,121.8896 122.2308,124.3466 119.1998,124.3466 C116.1678,124.3466 113.7098,121.8896 113.7098,118.8576 C113.7098,115.8266 116.1678,113.3686 119.1998,113.3686 C122.2308,113.3686 124.6888,115.8266 124.6888,118.8576" id="Fill-71"/><path d="M133.5273,142.3683 C134.355727,142.3683 135.0273,143.039873 135.0273,143.8683 C135.0273,144.647996 134.432412,145.288749 133.67176,145.361433 L133.5273,145.3683 L2.8353,145.3683 C2.00687288,145.3683 1.3353,144.696727 1.3353,143.8683 C1.3353,143.088604 1.93018808,142.447851 2.69083999,142.375167 L2.8353,142.3683 L133.5273,142.3683 Z" id="Stroke-72" fill-rule="nonzero"/><polygon id="Fill-73" points="2.8359 166.8139 133.5279 166.8139 133.5279 143.8689 2.8359 143.8689"/></g></g></g></g></svg>