<?xml version="1.0" encoding="UTF-8" standalone="no"?>
<svg
   xmlns:dc="http://purl.org/dc/elements/1.1/"
   xmlns:cc="http://creativecommons.org/ns#"
   xmlns:rdf="http://www.w3.org/1999/02/22-rdf-syntax-ns#"
   xmlns:svg="http://www.w3.org/2000/svg"
   xmlns="http://www.w3.org/2000/svg"
   xmlns:sodipodi="http://sodipodi.sourceforge.net/DTD/sodipodi-0.dtd"
   xmlns:inkscape="http://www.inkscape.org/namespaces/inkscape"
   width="409"
   height="69"
   version="1.1"
   viewBox="0 0 108.21507 18.256"
   id="svg36"
   sodipodi:docname="gt_logo.svg"
   inkscape:version="0.92.4 (5da689c313, 2019-01-14)">
  <metadata
     id="metadata42">
    <rdf:RDF>
      <cc:Work
         rdf:about="">
        <dc:format>image/svg+xml</dc:format>
        <dc:type
           rdf:resource="http://purl.org/dc/dcmitype/StillImage" />
        <dc:title />
      </cc:Work>
    </rdf:RDF>
  </metadata>
  <defs
     id="defs40" />
  <sodipodi:namedview
     pagecolor="#ffffff"
     bordercolor="#666666"
     borderopacity="1"
     objecttolerance="10"
     gridtolerance="10"
     guidetolerance="10"
     inkscape:pageopacity="0"
     inkscape:pageshadow="2"
     inkscape:window-width="2560"
     inkscape:window-height="1384"
     id="namedview38"
     showgrid="false"
     inkscape:zoom="1.3574829"
     inkscape:cx="-150.84809"
     inkscape:cy="44.926994"
     inkscape:window-x="0"
     inkscape:window-y="0"
     inkscape:window-maximized="1"
     inkscape:current-layer="text882" />
  <rect
     rx="5.2916903"
     y="-0.00016821289"
     x="17.834164"
     height="18.256332"
     width="87.312889"
     id="rect884"
     style="opacity:1;vector-effect:none;fill:#c2185b;fill-opacity:1;stroke:none;stroke-width:0.40743434;stroke-linecap:butt;stroke-linejoin:miter;stroke-miterlimit:4;stroke-dasharray:none;stroke-dashoffset:0;stroke-opacity:1"
     ry="5.2916903" />
  <g
     aria-label="By"
     style="font-style:normal;font-variant:normal;font-weight:normal;font-stretch:normal;font-size:4.23335266px;line-height:1.25;font-family:Roboto;-inkscape-font-specification:'Roboto, Normal';font-variant-ligatures:normal;font-variant-caps:normal;font-variant-numeric:normal;font-feature-settings:normal;text-align:start;letter-spacing:0px;word-spacing:0px;writing-mode:lr-tb;text-anchor:start;fill:#ffffff;fill-opacity:1;stroke:none;stroke-width:0.26458454"
     id="text882">
    <path
       d="m 7.3998098,10.94565 c 0,-0.582913 -0.2893894,-1.1492889 -0.9921921,-1.3270566 0.5953153,-0.2356456 0.8598998,-0.7276075 0.8598998,-1.2733131 0,-1.1244843 -0.835095,-1.6453852 -2.2282979,-1.6453852 H 2.9266774 v 6.0192979 h 2.3027123 c 1.3890689,0 2.1704201,-0.603583 2.1704201,-1.773543 z M 4.1710515,7.7044896 h 0.8681681 c 0.682132,0 0.9839237,0.2232432 0.9839237,0.7689488 0,0.4836936 -0.3224624,0.744144 -0.9839237,0.744144 H 4.1710515 Z m 1.9885182,3.2287584 c 0,0.45062 -0.2935234,0.785485 -0.93018,0.785485 H 4.1710515 v -1.624714 h 1.1079478 c 0.6283883,0 0.8805704,0.322462 0.8805704,0.839229 z"
       style="font-weight:bold;font-size:8.46670532px;fill:#ffffff;stroke-width:0.26458454"
       id="path829" />
    <path
       d="m 10.244093,13.388923 1.79008,-5.1428619 H 10.756726 L 9.9298993,11.032467 9.0989385,8.2460611 H 7.8132229 l 1.5668366,4.4814009 -0.1322922,0.343133 c -0.1157558,0.33073 -0.3059259,0.475425 -0.7772171,0.475425 -0.057878,0 -0.1281582,0 -0.186036,-0.0041 v 0.905375 c 0.1901701,0.04961 0.31006,0.07855 0.529169,0.07855 0.9467166,0 1.2733128,-0.686266 1.4304098,-1.136887 z"
       style="font-weight:bold;font-size:8.46670532px;fill:#ffffff;stroke-width:0.26458454"
       id="path831" />
  </g>
  <g
     id="g911"
     transform="matrix(0.87550576,0,0,0.87550576,7.0420125,1.1291167)">
    <path
       d="m 28.20707,8.981 h -4.4416 v 1.7053 h 2.1084 v 1.9456 c -0.24805,0.2403 -0.74414,0.55811 -1.8604,0.55811 -1.7363,0 -2.6588,-1.2325 -2.6588,-3.5812 V 8.91893 c 0,-2.3409 0.85266,-3.5812 2.434,-3.5812 1.403,0 1.9689,0.73639 2.1472,1.8759 h 2.2634 c -0.24805,-2.1937 -1.5425,-3.7517 -4.4726,-3.7517 -2.8603,0 -4.7361,1.9921 -4.7361,5.4725 v 0.67438 c 0,3.4804 1.9766,5.457 4.8989,5.457 2.4805,0 3.7827,-0.94568 4.3176,-1.5813 z"
       id="path2"
       inkscape:connector-curvature="0"
       style="fill:#ffffff;fill-opacity:1" />
    <path
       d="m 33.85007,8.561 c 0.24805,0 0.58136,0.0388 0.8139,0.062 l 0.02325,-2.1472 c -0.16278,-0.062 -0.45734,-0.10077 -0.68988,-0.10077 -0.82166,0 -1.4573,0.43408 -1.8681,1.155 L 32.05948,6.53009 h -2.1162 v 8.3871 h 2.2479 v -5.4958 c 0.2558,-0.5581 0.7984,-0.86041 1.6588,-0.86041 z"
       id="path4"
       inkscape:connector-curvature="0"
       style="fill:#ffffff;fill-opacity:1" />
    <path
       d="m 40.38407,14.911 h 2.263401 v -0.13177 c -0.21704,-0.42633 -0.33331,-0.96118 -0.33331,-1.9146 v -3.5502 c 0,-1.9611 -1.4263,-2.9456 -3.364101,-2.9456 -2.1704,0 -3.5657,1.2092 -3.5657,2.6665 h 2.2402 c 0,-0.62787 0.457341,-1.0077 1.2015,-1.0077 0.85266,0 1.2402,0.49609 1.2402,1.2712 v 0.48834 h -0.999939 c -2.550201,0 -3.868001,1.0077 -3.868001,2.7673 0,1.4573 1.2402,2.5115 2.8448,2.5115 0.99994,0 1.6743,-0.40307 2.1162,-0.90692 0.05426,0.2868 0.13178,0.55035 0.22479,0.75189 z m -1.8526,-1.558 c -0.68213,0 -1.093,-0.40308 -1.093,-0.96118 0,-0.73639 0.51935,-1.3022 1.7131,-1.3022 h 0.91467 v 1.4573 c -0.23254,0.41082 -0.782899,0.80615 -1.534799,0.80615 z"
       id="path6"
       inkscape:connector-curvature="0"
       style="fill:#ffffff;fill-opacity:1" />
    <path
       d="m 47.539071,13.261 c -1.3255,0 -1.589,-1.1395 -1.589,-2.434 v -0.21704 c 0,-1.2557 0.2713,-2.434 1.5813,-2.434 0.91467,0 1.403,0.65887 1.4185,1.4728 h 2.1084 c -0.02325,-2.0154 -1.4263,-3.2789 -3.4882,-3.2789 -2.589,0 -3.868,1.8681 -3.868,4.24 v 0.21704 c 0,2.3797 1.279,4.24 3.8757,4.24 1.9379,0 3.4572,-1.279 3.4804,-3.0541 h -2.1084 c -0.0155,0.75965 -0.58911,1.248 -1.410799,1.248 z"
       id="path8"
       inkscape:connector-curvature="0"
       style="fill:#ffffff;fill-opacity:1" />
    <path
       d="m 52.313971,4.361 c 0,0.66662 0.488341,1.155 1.2557,1.155 0.76736,0 1.255701,-0.48835 1.255701,-1.155 0,-0.67438 -0.488341,-1.1627 -1.255701,-1.1627 -0.767359,0 -1.2557,0.48834 -1.2557,1.1627 z m 2.3875,2.1704 h -2.2479 v 8.3871 h 2.2479 z"
       id="path10"
       inkscape:connector-curvature="0"
       style="fill:#ffffff;fill-opacity:1" />
    <path
       d="m 56.197471,10.811 c 0,2.4417 1.4418,4.2633 3.9843,4.2633 2.5347,0 3.961,-1.8216 3.961,-4.2633 v -0.16279 c 0,-2.4417 -1.4263,-4.271 -3.9765,-4.271 -2.527,0 -3.9688,1.8293 -3.9688,4.271 z m 2.2479,-0.16279 c 0,-1.3332 0.46509,-2.465 1.7208,-2.465 1.2712,0 1.7363,1.1317 1.7363,2.465 V 10.811 c 0,1.3642 -0.47284,2.4572 -1.7208,2.4572 -1.2712,0 -1.7363,-1.093 -1.7363,-2.4572 z"
       id="path12"
       inkscape:connector-curvature="0"
       style="fill:#ffffff;fill-opacity:1" />
    <path
       d="m 70.63077,14.911 h 2.1084 V 6.5239 h -2.2479 v 5.9221 c -0.26355,0.49609 -0.75964,0.7984 -1.5735,0.7984 -0.68988,0 -1.186,-0.34882 -1.186,-1.279 V 6.5239 h -2.240199 v 5.426 c 0,2.2169 1.124,3.1161 2.782799,3.1161 1.0154,0 1.7751,-0.37982 2.2944,-1.0154 z"
       id="path14"
       inkscape:connector-curvature="0"
       style="fill:#ffffff;fill-opacity:1" />
    <path
       d="m 78.97907,12.591 c 0,0.51935 -0.44958,0.88367 -1.3022,0.88367 -0.7984,0 -1.496,-0.34882 -1.5348,-1.2325 h -2.1317 c 0,1.3642 1.2712,2.8293 3.6199,2.8293 2.1549,0 3.5269,-1.0852 3.5269,-2.5657 0,-1.6666 -1.3488,-2.2789 -3.1626,-2.6355 -1.1705,-0.22479 -1.5658,-0.5116 -1.5658,-0.99994 0,-0.5116 0.44183,-0.90692 1.186,-0.90692 0.88367,0 1.279,0.47284 1.279,1.1162 h 2.2402 c 0,-1.5658 -1.3333,-2.7053 -3.5114,-2.7053 -2.0929,0 -3.3409,1.2092 -3.3409,2.6045 0,1.4495 1.2635,2.1782 2.9843,2.5425 1.403,0.30231 1.7131,0.59686 1.7131,1.0697 z"
       id="path16"
       inkscape:connector-curvature="0"
       style="fill:#ffffff;fill-opacity:1" />
    <g
       transform="translate(62.10707,-208.959)"
       style="fill:#40c4ff"
       id="g30">
      <path
         inkscape:connector-curvature="0"
         id="path20"
         d="m 21.229,223.34 c 0,0.37207 0.29456,0.655 0.72089,0.655 0.43021,0 0.72089,-0.28293 0.72089,-0.655 0,-0.37207 -0.29068,-0.655 -0.72089,-0.655 -0.42633,0 -0.72089,0.28293 -0.72089,0.655 z" />
      <path
         inkscape:connector-curvature="0"
         id="path22"
         d="m 23.322,219.36 h 1.6588 v 4.5928 h 1.3604 V 219.36 h 1.6976 v -1.0503 H 23.322 Z" />
      <path
         inkscape:connector-curvature="0"
         id="path24"
         d="m 28.616,223.95 h 3.8835 v -1.0464 h -2.5231 v -1.3449 h 2.1355 v -1.0116 h -2.1355 v -1.1898 h 2.5347 V 218.307 H 28.616 Z" />
      <path
         inkscape:connector-curvature="0"
         id="path26"
         d="m 36.275,222.04 c -0.01938,0.63562 -0.36044,0.92242 -0.97668,0.92242 -0.74026,0 -1.0116,-0.48059 -1.0116,-1.6782 v -0.31393 c 0,-1.2015 0.32169,-1.6782 0.99219,-1.6782 0.72089,0 0.98444,0.32943 1.0038,0.96505 h 1.3565 c -0.10464,-1.1705 -0.88754,-2.0309 -2.3603,-2.0309 -1.4301,0 -2.3719,1.0542 -2.3719,2.7518 v 0.30618 c 0,1.6976 0.88367,2.744 2.3913,2.744 1.3914,0 2.2789,-0.80615 2.3332,-1.9882 z" />
      <path
         inkscape:connector-curvature="0"
         id="path28"
         d="m 41.635,223.95 h 1.3565 v -5.6431 H 41.635 v 2.2402 h -1.9999 v -2.2402 h -1.3604 v 5.6431 h 1.3604 v -2.3564 h 1.9999 z" />
    </g>
  </g>
</svg>
