<?xml version="1.0" encoding="UTF-8"?>
<!-- Created with Inkscape (http://www.inkscape.org/) -->
<svg width="363.05" height="221.57" version="1.1" viewBox="0 0 363.05 221.57" xmlns="http://www.w3.org/2000/svg" xmlns:cc="http://creativecommons.org/ns#" xmlns:dc="http://purl.org/dc/elements/1.1/" xmlns:rdf="http://www.w3.org/1999/02/22-rdf-syntax-ns#">
 <defs>
  <clipPath id="clipPath45755">
   <rect x="120.98" y="176.39" width="106.07" height="17.078" d="m 120.97875,176.38573 h 106.07328 v 17.07755 H 120.97875 Z" display="none" fill="#fff"/>
   <path class="powerclip" d="m59.632 139.42h217.25v50.391h-217.25zm61.347 36.969v17.078h106.07v-17.078z" fill="#fff"/>
  </clipPath>
  <clipPath id="clipPath45763">
   <rect x="81.11" y="83.091" width="26.424" height="21.314" d="M 81.110092,83.091019 H 107.53382 V 104.40454 H 81.110092 Z" display="none" fill="#fff"/>
   <path class="powerclip" d="m44.081 49.344h101.22v84.58h-101.22zm37.029 33.747v21.314h26.424v-21.314z" fill="#fff"/>
  </clipPath>
  <clipPath id="clipPath45771">
   <rect x="242.38" y="77.134" width="26.424" height="21.314" d="m 242.37859,77.133835 h 26.42373 v 21.31352 h -26.42373 z" display="none" fill="#fff"/>
   <path class="powerclip" d="m203.22 49.176h96.858v78.204h-96.858zm39.155 27.958v21.314h26.424v-21.314z" fill="#fff"/>
  </clipPath>
  <marker id="marker10443-4740435842" overflow="visible" orient="auto">
   <path transform="scale(-.6)" d="m8.7186 4.0337-10.926-4.0177 10.926-4.0177c-1.7455 2.3721-1.7354 5.6175-6e-7 8.0354z" fill="#fff" fill-rule="evenodd" stroke="#fff" stroke-linejoin="round" stroke-width=".625"/>
  </marker>
  <marker id="marker10443-4-5-17273" overflow="visible" orient="auto">
   <path transform="scale(-.6)" d="m8.7186 4.0337-10.926-4.0177 10.926-4.0177c-1.7455 2.3721-1.7354 5.6175-6e-7 8.0354z" fill="#fff" fill-rule="evenodd" stroke="#fff" stroke-linejoin="round" stroke-width=".625"/>
  </marker>
  <marker id="Arrow2Mstart-97746" overflow="visible" orient="auto">
   <path transform="scale(.6)" d="m8.7186 4.0337-10.926-4.0177 10.926-4.0177c-1.7455 2.3721-1.7354 5.6175-6e-7 8.0354z" fill="#fff" fill-rule="evenodd" stroke="#fff" stroke-linejoin="round" stroke-width=".625"/>
  </marker>
  <marker id="marker10443-4-5-18188" overflow="visible" orient="auto">
   <path transform="scale(-.6)" d="m8.7186 4.0337-10.926-4.0177 10.926-4.0177c-1.7455 2.3721-1.7354 5.6175-6e-7 8.0354z" fill="#fff" fill-rule="evenodd" stroke="#fff" stroke-linejoin="round" stroke-width=".625"/>
  </marker>
 </defs>
 <metadata>
  <rdf:RDF>
   <cc:Work rdf:about="">
    <dc:format>image/svg+xml</dc:format>
    <dc:type rdf:resource="http://purl.org/dc/dcmitype/StillImage"/>
   </cc:Work>
  </rdf:RDF>
 </metadata>
 <g transform="translate(-.55562 16.105)">
  <path d="m295.4 169.01c-0.55908-1.5886-2.0727-2.7273-3.8523-2.7273-2.2568 0-4.0909 1.8341-4.0909 4.0909 0 2.2569 1.8341 4.0909 4.0909 4.0909 1.7796 0 3.2932-1.1386 3.8523-2.7272h2.9659v2.7272h2.7273v-2.7272h1.3636v-2.7273zm-3.8523 2.7273c-0.75 0-1.3636-0.6137-1.3636-1.3637s0.61363-1.3636 1.3636-1.3636c0.75001 0 1.3636 0.6136 1.3636 1.3636s-0.61363 1.3637-1.3636 1.3637z" fill="#00e676"/>
  <path d="m350.11 164.37h-12c-0.82498 0-1.4925 0.675-1.4925 1.5l-8e-3 9c0 0.825 0.675 1.5 1.5 1.5h12c0.82501 0 1.5-0.675 1.5-1.5v-9c0-0.825-0.675-1.5-1.5-1.5zm0 3-6 3.75-6-3.75v-1.5l6 3.75 6-3.75z" fill="#fff"/>
  <path d="m332.91 170.02v0.70313l-3.0703 3.0703-0.9375-0.9375 1.8203-1.8203h-5.5234v-1.3281h5.5234l-1.8203-1.8203 0.9375-0.9375z" fill="#fff" stroke-width="2"/>
  <path d="m198.84 64.964 88.063 70.771" fill="#800080" fill-rule="evenodd" marker-start="url(#Arrow2Mstart-97746)" stroke="#fff" stroke-dasharray="12, 12" stroke-width="2"/>
  <g>
   <path d="m208.84 54.964 83.768 65.426" clip-path="url(#clipPath45771)" fill="#800080" fill-rule="evenodd" marker-end="url(#marker10443-4-5-17273)" stroke="#fff" stroke-width="2"/>
   <text transform="rotate(39.137)" x="216.48584" y="-61.928654" color="#000000" color-rendering="auto" fill="#ffffff" font-family="Roboto" font-weight="bold" image-rendering="auto" letter-spacing="0px" shape-rendering="auto" solid-color="#000000" stroke-width="3" text-rendering="auto" word-spacing="0px" style="isolation:auto;line-height:0%;mix-blend-mode:normal;text-decoration-color:#000000;text-decoration-line:none;text-decoration-style:solid;text-indent:0;text-transform:none;white-space:normal" xml:space="preserve"><tspan x="216.48584" y="-61.928654" fill="#ffffff" font-size="10px" style="line-height:1.25">https://address</tspan></text>
   <path d="m74.321 168.73h184.86" fill="#800080" fill-rule="evenodd" marker-end="url(#marker10443-4-5-18188)" stroke="#fff" stroke-width="1.7928"/>
  </g>
  <g>
   <text x="129.01926" y="161.11037" color="#000000" color-rendering="auto" fill="#ffffff" font-family="Roboto" font-weight="bold" image-rendering="auto" letter-spacing="0px" shape-rendering="auto" solid-color="#000000" stroke-width="3" text-rendering="auto" word-spacing="0px" style="isolation:auto;line-height:0%;mix-blend-mode:normal;text-decoration-color:#000000;text-decoration-line:none;text-decoration-style:solid;text-indent:0;text-transform:none;white-space:normal" xml:space="preserve"><tspan x="129.01926" y="161.11037" fill="#ffffff" font-size="10px" style="line-height:1.25">https://address#</tspan></text>
   <path d="m212 156.04c-0.55908-1.5886-2.0727-2.7273-3.8523-2.7273-2.2568 0-4.0909 1.8341-4.0909 4.0909 0 2.2568 1.8341 4.0909 4.0909 4.0909 1.7796 0 3.2932-1.1386 3.8523-2.7273h2.9659v2.7273h2.7273v-2.7273h1.3636v-2.7273zm-3.8523 2.7273c-0.75 0-1.3636-0.61363-1.3636-1.3636s0.61363-1.3636 1.3636-1.3636c0.75001 0 1.3636 0.61364 1.3636 1.3636s-0.61363 1.3636-1.3636 1.3636z" fill="#00e676"/>
   <g transform="matrix(.75 0 0 .75 304.26 161.37)" fill="#00e676">
    <g fill="#00e676">
     <g fill="#00e676">
      <g fill="#00e676">
       <path d="m22 9.97v-3.97c0-1.1-0.9-2-2-2h-16c-1.1 0-1.99 0.9-1.99 2l-0.01 12c0 1.1 0.9 2 2 2h12v-5.03c0-2.76 2.24-5 5-5zm-2-1.97-8 5-8-5v-2l8 5 8-5z"/>
       <path d="m23 15v-1c0-1.1-0.9-2-2-2s-2 0.9-2 2v1c-0.55 0-1 0.45-1 1v3c0 0.55 0.45 1 1 1h4c0.55 0 1-0.45 1-1v-3c0-0.55-0.45-1-1-1zm-1 0h-2v-1c0-0.55 0.45-1 1-1s1 0.45 1 1z"/>
      </g>
     </g>
    </g>
   </g>
  </g>
  <path x="65.029968" y="144.81483" width="206.45648" height="39.594521" d="m65.03 144.81h206.46v39.595h-206.46z" clip-path="url(#clipPath45755)" fill="none" stroke="#fff" stroke-dasharray="1.59361, 3.18722" stroke-opacity=".6" stroke-width=".7968"/>
  <g fill="#ffffff" fill-opacity=".6" font-family="sans-serif">
   <text x="124.83565" y="188.66833" style="line-height:0%" xml:space="preserve"><tspan x="124.83565" y="188.66833" fill="#ffffff" fill-opacity=".6" font-family="Roboto" font-size="13.333px" font-style="italic" font-weight="bold" style="line-height:1.25">email / chat / etc</tspan></text>
   <text x="130.0743" y="5.8947968" style="line-height:0%" xml:space="preserve"><tspan x="130.0743" y="5.8947968" fill="#ffffff" fill-opacity=".6" font-family="Roboto" font-size="13.333px" font-style="italic" font-weight="bold" style="line-height:1.25">Stello server</tspan></text>
   <text x="12.826335" y="189.31888" style="line-height:0%" xml:space="preserve"><tspan x="12.826335" y="189.31888" fill="#ffffff" fill-opacity=".6" font-family="Roboto" font-size="13.333px" font-style="italic" font-weight="bold" style="line-height:1.25">Stello</tspan></text>
   <text x="297.46304" y="191.72507" style="line-height:0%" xml:space="preserve"><tspan x="297.46304" y="191.72507" fill="#ffffff" fill-opacity=".6" font-family="Roboto" font-size="13.333px" font-style="italic" font-weight="bold" style="line-height:1.25">browser</tspan></text>
  </g>
  <path d="m49.712 128.15 88.175-71.742" clip-path="url(#clipPath45763)" fill="#fff" fill-rule="evenodd" marker-end="url(#marker10443-4740435842)" stroke="#fff" stroke-width="2"/>
  <g transform="translate(81.498 81.678)" fill="#00e676">
   <g fill="#00e676">
    <g fill="#00e676">
     <path d="m22 9.97v-3.97c0-1.1-0.9-2-2-2h-16c-1.1 0-1.99 0.9-1.99 2l-0.01 12c0 1.1 0.9 2 2 2h12v-5.03c0-2.76 2.24-5 5-5zm-2-1.97-8 5-8-5v-2l8 5 8-5z"/>
     <path d="m23 15v-1c0-1.1-0.9-2-2-2s-2 0.9-2 2v1c-0.55 0-1 0.45-1 1v3c0 0.55 0.45 1 1 1h4c0.55 0 1-0.45 1-1v-3c0-0.55-0.45-1-1-1zm-1 0h-2v-1c0-0.55 0.45-1 1-1s1 0.45 1 1z"/>
    </g>
   </g>
  </g>
  <g transform="translate(242.77 75.721)" fill="#00e676">
   <g fill="#00e676">
    <g fill="#00e676">
     <path d="m22 9.97v-3.97c0-1.1-0.9-2-2-2h-16c-1.1 0-1.99 0.9-1.99 2l-0.01 12c0 1.1 0.9 2 2 2h12v-5.03c0-2.76 2.24-5 5-5zm-2-1.97-8 5-8-5v-2l8 5 8-5z"/>
     <path d="m23 15v-1c0-1.1-0.9-2-2-2s-2 0.9-2 2v1c-0.55 0-1 0.45-1 1v3c0 0.55 0.45 1 1 1h4c0.55 0 1-0.45 1-1v-3c0-0.55-0.45-1-1-1zm-1 0h-2v-1c0-0.55 0.45-1 1-1s1 0.45 1 1z"/>
    </g>
   </g>
  </g>
  <g fill="#fff">
   <path transform="translate(.55562 -16.105)" d="m166.46 28.27c-6.0208 0-11.251 3.418-13.855 8.418-6.2708 0.66667-11.145 5.9785-11.145 12.416 0 6.8958 5.6042 12.5 12.5 12.5h27.082c5.75 0 10.418-4.666 10.418-10.416 0-5.5-4.2708-9.959-9.6875-10.334-1.4167-7.1875-7.7292-12.584-15.312-12.584zm0.29688 8.5508c5.53 0 10.01 4.48 10.01 10 0 5.52-4.4798 10-10.01 10-5.52 0-9.9902-4.48-9.9902-10 0-5.52 4.4702-10 9.9902-10zm0.00976 2c-4.42 0-8 3.58-8 8 0 4.42 3.58 8 8 8s8-3.58 8-8c0-4.42-3.58-8-8-8zm-1 3h1.5v5.25l4.5 2.6699-0.75 1.2305-5.25-3.1504v-6z"/>
   <path d="m29.222 154.43c4.6042 0 8.3333-3.7292 8.3333-8.3333 0-4.6042-3.7292-8.3333-8.3333-8.3333s-8.3333 3.7292-8.3333 8.3333c0 4.6042 3.7292 8.3333 8.3333 8.3333zm0 4.1667c-5.5625 0-16.667 2.7917-16.667 8.3333v4.1667h33.333v-4.1667c0-5.5417-11.104-8.3333-16.667-8.3333z"/>
   <path d="m320.84 141.54c4.0173 0 7.2711-3.2538 7.2711-7.2711 0-4.0173-3.2538-7.2711-7.2711-7.2711-4.0173 0-7.2711 3.2538-7.2711 7.2711 0 4.0173 3.2538 7.2711 7.2711 7.2711zm0 3.6355c-4.8534 0-14.542 2.4358-14.542 7.271v3.6356h29.084v-3.6356c0-4.8352-9.6887-7.271-14.542-7.271z" stroke-width=".87253"/>
  </g>
 </g>
</svg>
